%TF.GenerationSoftware,KiCad,Pcbnew,7.0.11*%
%TF.CreationDate,2024-06-12T14:29:25-04:00*%
%TF.ProjectId,StenoBoard,5374656e-6f42-46f6-9172-642e6b696361,rev?*%
%TF.SameCoordinates,Original*%
%TF.FileFunction,Drillmap*%
%TF.FilePolarity,Positive*%
%FSLAX45Y45*%
G04 Gerber Fmt 4.5, Leading zero omitted, Abs format (unit mm)*
G04 Created by KiCad (PCBNEW 7.0.11) date 2024-06-12 14:29:25*
%MOMM*%
%LPD*%
G01*
G04 APERTURE LIST*
%ADD10C,0.100000*%
%ADD11C,0.200000*%
%ADD12C,0.110000*%
%ADD13C,0.150000*%
G04 APERTURE END LIST*
D10*
X9144000Y-13208000D02*
X9144000Y-17526000D01*
X4318000Y-13208000D02*
X9144000Y-13208000D01*
X36576000Y-13208000D02*
X36576000Y-8636000D01*
X4318000Y-8890000D02*
X4318000Y-13208000D01*
X29210000Y-17526000D02*
X29210000Y-13208000D01*
X29210000Y-13208000D02*
X36576000Y-13208000D01*
X9144000Y-17526000D02*
X29210000Y-17526000D01*
X36576000Y-8636000D02*
X4318000Y-8636000D01*
X4318000Y-8636000D02*
X4318000Y-8890000D01*
D11*
D12*
X18387940Y-8949300D02*
X18497940Y-9059300D01*
X18497940Y-8949300D02*
X18387940Y-9059300D01*
X18387940Y-9203300D02*
X18497940Y-9313300D01*
X18497940Y-9203300D02*
X18387940Y-9313300D01*
X18387940Y-9457300D02*
X18497940Y-9567300D01*
X18497940Y-9457300D02*
X18387940Y-9567300D01*
X18387940Y-9711300D02*
X18497940Y-9821300D01*
X18497940Y-9711300D02*
X18387940Y-9821300D01*
X18387940Y-9965300D02*
X18497940Y-10075300D01*
X18497940Y-9965300D02*
X18387940Y-10075300D01*
X18387940Y-10219300D02*
X18497940Y-10329300D01*
X18497940Y-10219300D02*
X18387940Y-10329300D01*
X18387940Y-10473300D02*
X18497940Y-10583300D01*
X18497940Y-10473300D02*
X18387940Y-10583300D01*
X18387940Y-10727300D02*
X18497940Y-10837300D01*
X18497940Y-10727300D02*
X18387940Y-10837300D01*
X18387940Y-10981300D02*
X18497940Y-11091300D01*
X18497940Y-10981300D02*
X18387940Y-11091300D01*
X18387940Y-11235300D02*
X18497940Y-11345300D01*
X18497940Y-11235300D02*
X18387940Y-11345300D01*
X18387940Y-11489300D02*
X18497940Y-11599300D01*
X18497940Y-11489300D02*
X18387940Y-11599300D01*
X18387940Y-11743300D02*
X18497940Y-11853300D01*
X18497940Y-11743300D02*
X18387940Y-11853300D01*
X19911940Y-8949300D02*
X20021940Y-9059300D01*
X20021940Y-8949300D02*
X19911940Y-9059300D01*
X19911940Y-9203300D02*
X20021940Y-9313300D01*
X20021940Y-9203300D02*
X19911940Y-9313300D01*
X19911940Y-9457300D02*
X20021940Y-9567300D01*
X20021940Y-9457300D02*
X19911940Y-9567300D01*
X19911940Y-9711300D02*
X20021940Y-9821300D01*
X20021940Y-9711300D02*
X19911940Y-9821300D01*
X19911940Y-9965300D02*
X20021940Y-10075300D01*
X20021940Y-9965300D02*
X19911940Y-10075300D01*
X19911940Y-10219300D02*
X20021940Y-10329300D01*
X20021940Y-10219300D02*
X19911940Y-10329300D01*
X19911940Y-10473300D02*
X20021940Y-10583300D01*
X20021940Y-10473300D02*
X19911940Y-10583300D01*
X19911940Y-10727300D02*
X20021940Y-10837300D01*
X20021940Y-10727300D02*
X19911940Y-10837300D01*
X19911940Y-10981300D02*
X20021940Y-11091300D01*
X20021940Y-10981300D02*
X19911940Y-11091300D01*
X19911940Y-11235300D02*
X20021940Y-11345300D01*
X20021940Y-11235300D02*
X19911940Y-11345300D01*
X19911940Y-11489300D02*
X20021940Y-11599300D01*
X20021940Y-11489300D02*
X19911940Y-11599300D01*
X19911940Y-11743300D02*
X20021940Y-11853300D01*
X20021940Y-11743300D02*
X19911940Y-11853300D01*
D13*
X5528000Y-9652000D02*
G75*
G03*
X5378000Y-9652000I-75000J0D01*
G01*
X5378000Y-9652000D02*
G75*
G03*
X5528000Y-9652000I75000J0D01*
G01*
D10*
X5450192Y-9516821D02*
X5329299Y-9706584D01*
X5329299Y-9706584D02*
G75*
G03*
X5455808Y-9787179I63254J-40298D01*
G01*
X5455808Y-9787179D02*
X5576701Y-9597416D01*
X5576701Y-9597416D02*
G75*
G03*
X5450192Y-9516821I-63254J40298D01*
G01*
D13*
X5528000Y-11557000D02*
G75*
G03*
X5378000Y-11557000I-75000J0D01*
G01*
X5378000Y-11557000D02*
G75*
G03*
X5528000Y-11557000I75000J0D01*
G01*
D10*
X5450192Y-11421821D02*
X5329299Y-11611584D01*
X5329299Y-11611584D02*
G75*
G03*
X5455808Y-11692179I63254J-40298D01*
G01*
X5455808Y-11692179D02*
X5576701Y-11502416D01*
X5576701Y-11502416D02*
G75*
G03*
X5450192Y-11421821I-63254J40298D01*
G01*
D13*
X6105500Y-9525000D02*
G75*
G03*
X5955500Y-9525000I-75000J0D01*
G01*
X5955500Y-9525000D02*
G75*
G03*
X6105500Y-9525000I75000J0D01*
G01*
D10*
X5957646Y-9490966D02*
X5953701Y-9548832D01*
X5953701Y-9548832D02*
G75*
G03*
X6103354Y-9559034I74826J-5101D01*
G01*
X6103354Y-9559034D02*
X6107299Y-9501168D01*
X6107299Y-9501168D02*
G75*
G03*
X5957646Y-9490966I-74826J5101D01*
G01*
D13*
X6105500Y-11430000D02*
G75*
G03*
X5955500Y-11430000I-75000J0D01*
G01*
X5955500Y-11430000D02*
G75*
G03*
X6105500Y-11430000I75000J0D01*
G01*
D10*
X5957646Y-11395966D02*
X5953701Y-11453832D01*
X5953701Y-11453832D02*
G75*
G03*
X6103354Y-11464034I74826J-5101D01*
G01*
X6103354Y-11464034D02*
X6107299Y-11406168D01*
X6107299Y-11406168D02*
G75*
G03*
X5957646Y-11395966I-74826J5101D01*
G01*
D13*
X7941000Y-9652000D02*
G75*
G03*
X7791000Y-9652000I-75000J0D01*
G01*
X7791000Y-9652000D02*
G75*
G03*
X7941000Y-9652000I75000J0D01*
G01*
D10*
X7863192Y-9516821D02*
X7742299Y-9706584D01*
X7742299Y-9706584D02*
G75*
G03*
X7868808Y-9787179I63254J-40298D01*
G01*
X7868808Y-9787179D02*
X7989701Y-9597416D01*
X7989701Y-9597416D02*
G75*
G03*
X7863192Y-9516821I-63254J40298D01*
G01*
D13*
X7941000Y-11557000D02*
G75*
G03*
X7791000Y-11557000I-75000J0D01*
G01*
X7791000Y-11557000D02*
G75*
G03*
X7941000Y-11557000I75000J0D01*
G01*
D10*
X7863192Y-11421821D02*
X7742299Y-11611584D01*
X7742299Y-11611584D02*
G75*
G03*
X7868808Y-11692179I63254J-40298D01*
G01*
X7868808Y-11692179D02*
X7989701Y-11502416D01*
X7989701Y-11502416D02*
G75*
G03*
X7863192Y-11421821I-63254J40298D01*
G01*
D13*
X8518500Y-9525000D02*
G75*
G03*
X8368500Y-9525000I-75000J0D01*
G01*
X8368500Y-9525000D02*
G75*
G03*
X8518500Y-9525000I75000J0D01*
G01*
D10*
X8370646Y-9490966D02*
X8366701Y-9548832D01*
X8366701Y-9548832D02*
G75*
G03*
X8516354Y-9559034I74826J-5101D01*
G01*
X8516354Y-9559034D02*
X8520299Y-9501168D01*
X8520299Y-9501168D02*
G75*
G03*
X8370646Y-9490966I-74826J5101D01*
G01*
D13*
X8518500Y-11430000D02*
G75*
G03*
X8368500Y-11430000I-75000J0D01*
G01*
X8368500Y-11430000D02*
G75*
G03*
X8518500Y-11430000I75000J0D01*
G01*
D10*
X8370646Y-11395966D02*
X8366701Y-11453832D01*
X8366701Y-11453832D02*
G75*
G03*
X8516354Y-11464034I74826J-5101D01*
G01*
X8516354Y-11464034D02*
X8520299Y-11406168D01*
X8520299Y-11406168D02*
G75*
G03*
X8370646Y-11395966I-74826J5101D01*
G01*
D13*
X10354000Y-9652000D02*
G75*
G03*
X10204000Y-9652000I-75000J0D01*
G01*
X10204000Y-9652000D02*
G75*
G03*
X10354000Y-9652000I75000J0D01*
G01*
D10*
X10276192Y-9516821D02*
X10155299Y-9706584D01*
X10155299Y-9706584D02*
G75*
G03*
X10281808Y-9787179I63254J-40298D01*
G01*
X10281808Y-9787179D02*
X10402701Y-9597416D01*
X10402701Y-9597416D02*
G75*
G03*
X10276192Y-9516821I-63254J40298D01*
G01*
D13*
X10354000Y-11557000D02*
G75*
G03*
X10204000Y-11557000I-75000J0D01*
G01*
X10204000Y-11557000D02*
G75*
G03*
X10354000Y-11557000I75000J0D01*
G01*
D10*
X10276192Y-11421821D02*
X10155299Y-11611584D01*
X10155299Y-11611584D02*
G75*
G03*
X10281808Y-11692179I63254J-40298D01*
G01*
X10281808Y-11692179D02*
X10402701Y-11502416D01*
X10402701Y-11502416D02*
G75*
G03*
X10276192Y-11421821I-63254J40298D01*
G01*
D13*
X10354000Y-16002000D02*
G75*
G03*
X10204000Y-16002000I-75000J0D01*
G01*
X10204000Y-16002000D02*
G75*
G03*
X10354000Y-16002000I75000J0D01*
G01*
D10*
X10276192Y-15866821D02*
X10155299Y-16056584D01*
X10155299Y-16056584D02*
G75*
G03*
X10281808Y-16137179I63254J-40298D01*
G01*
X10281808Y-16137179D02*
X10402701Y-15947416D01*
X10402701Y-15947416D02*
G75*
G03*
X10276192Y-15866821I-63254J40298D01*
G01*
D13*
X10931500Y-9525000D02*
G75*
G03*
X10781500Y-9525000I-75000J0D01*
G01*
X10781500Y-9525000D02*
G75*
G03*
X10931500Y-9525000I75000J0D01*
G01*
D10*
X10783646Y-9490966D02*
X10779701Y-9548832D01*
X10779701Y-9548832D02*
G75*
G03*
X10929354Y-9559034I74826J-5101D01*
G01*
X10929354Y-9559034D02*
X10933299Y-9501168D01*
X10933299Y-9501168D02*
G75*
G03*
X10783646Y-9490966I-74826J5101D01*
G01*
D13*
X10931500Y-11430000D02*
G75*
G03*
X10781500Y-11430000I-75000J0D01*
G01*
X10781500Y-11430000D02*
G75*
G03*
X10931500Y-11430000I75000J0D01*
G01*
D10*
X10783646Y-11395966D02*
X10779701Y-11453832D01*
X10779701Y-11453832D02*
G75*
G03*
X10929354Y-11464034I74826J-5101D01*
G01*
X10929354Y-11464034D02*
X10933299Y-11406168D01*
X10933299Y-11406168D02*
G75*
G03*
X10783646Y-11395966I-74826J5101D01*
G01*
D13*
X10931500Y-15875000D02*
G75*
G03*
X10781500Y-15875000I-75000J0D01*
G01*
X10781500Y-15875000D02*
G75*
G03*
X10931500Y-15875000I75000J0D01*
G01*
D10*
X10783646Y-15840966D02*
X10779701Y-15898832D01*
X10779701Y-15898832D02*
G75*
G03*
X10929354Y-15909034I74826J-5101D01*
G01*
X10929354Y-15909034D02*
X10933299Y-15851168D01*
X10933299Y-15851168D02*
G75*
G03*
X10783646Y-15840966I-74826J5101D01*
G01*
D13*
X12767000Y-9652000D02*
G75*
G03*
X12617000Y-9652000I-75000J0D01*
G01*
X12617000Y-9652000D02*
G75*
G03*
X12767000Y-9652000I75000J0D01*
G01*
D10*
X12689192Y-9516821D02*
X12568299Y-9706584D01*
X12568299Y-9706584D02*
G75*
G03*
X12694808Y-9787179I63254J-40298D01*
G01*
X12694808Y-9787179D02*
X12815701Y-9597416D01*
X12815701Y-9597416D02*
G75*
G03*
X12689192Y-9516821I-63254J40298D01*
G01*
D13*
X12767000Y-11557000D02*
G75*
G03*
X12617000Y-11557000I-75000J0D01*
G01*
X12617000Y-11557000D02*
G75*
G03*
X12767000Y-11557000I75000J0D01*
G01*
D10*
X12689192Y-11421821D02*
X12568299Y-11611584D01*
X12568299Y-11611584D02*
G75*
G03*
X12694808Y-11692179I63254J-40298D01*
G01*
X12694808Y-11692179D02*
X12815701Y-11502416D01*
X12815701Y-11502416D02*
G75*
G03*
X12689192Y-11421821I-63254J40298D01*
G01*
D13*
X12767000Y-16002000D02*
G75*
G03*
X12617000Y-16002000I-75000J0D01*
G01*
X12617000Y-16002000D02*
G75*
G03*
X12767000Y-16002000I75000J0D01*
G01*
D10*
X12689192Y-15866821D02*
X12568299Y-16056584D01*
X12568299Y-16056584D02*
G75*
G03*
X12694808Y-16137179I63254J-40298D01*
G01*
X12694808Y-16137179D02*
X12815701Y-15947416D01*
X12815701Y-15947416D02*
G75*
G03*
X12689192Y-15866821I-63254J40298D01*
G01*
D13*
X13344500Y-9525000D02*
G75*
G03*
X13194500Y-9525000I-75000J0D01*
G01*
X13194500Y-9525000D02*
G75*
G03*
X13344500Y-9525000I75000J0D01*
G01*
D10*
X13196646Y-9490966D02*
X13192701Y-9548832D01*
X13192701Y-9548832D02*
G75*
G03*
X13342354Y-9559034I74826J-5101D01*
G01*
X13342354Y-9559034D02*
X13346299Y-9501168D01*
X13346299Y-9501168D02*
G75*
G03*
X13196646Y-9490966I-74826J5101D01*
G01*
D13*
X13344500Y-11430000D02*
G75*
G03*
X13194500Y-11430000I-75000J0D01*
G01*
X13194500Y-11430000D02*
G75*
G03*
X13344500Y-11430000I75000J0D01*
G01*
D10*
X13196646Y-11395966D02*
X13192701Y-11453832D01*
X13192701Y-11453832D02*
G75*
G03*
X13342354Y-11464034I74826J-5101D01*
G01*
X13342354Y-11464034D02*
X13346299Y-11406168D01*
X13346299Y-11406168D02*
G75*
G03*
X13196646Y-11395966I-74826J5101D01*
G01*
D13*
X13344500Y-15875000D02*
G75*
G03*
X13194500Y-15875000I-75000J0D01*
G01*
X13194500Y-15875000D02*
G75*
G03*
X13344500Y-15875000I75000J0D01*
G01*
D10*
X13196646Y-15840966D02*
X13192701Y-15898832D01*
X13192701Y-15898832D02*
G75*
G03*
X13342354Y-15909034I74826J-5101D01*
G01*
X13342354Y-15909034D02*
X13346299Y-15851168D01*
X13346299Y-15851168D02*
G75*
G03*
X13196646Y-15840966I-74826J5101D01*
G01*
D13*
X15180000Y-9652000D02*
G75*
G03*
X15030000Y-9652000I-75000J0D01*
G01*
X15030000Y-9652000D02*
G75*
G03*
X15180000Y-9652000I75000J0D01*
G01*
D10*
X15102192Y-9516821D02*
X14981299Y-9706584D01*
X14981299Y-9706584D02*
G75*
G03*
X15107808Y-9787179I63254J-40298D01*
G01*
X15107808Y-9787179D02*
X15228701Y-9597416D01*
X15228701Y-9597416D02*
G75*
G03*
X15102192Y-9516821I-63254J40298D01*
G01*
D13*
X15180000Y-11557000D02*
G75*
G03*
X15030000Y-11557000I-75000J0D01*
G01*
X15030000Y-11557000D02*
G75*
G03*
X15180000Y-11557000I75000J0D01*
G01*
D10*
X15102192Y-11421821D02*
X14981299Y-11611584D01*
X14981299Y-11611584D02*
G75*
G03*
X15107808Y-11692179I63254J-40298D01*
G01*
X15107808Y-11692179D02*
X15228701Y-11502416D01*
X15228701Y-11502416D02*
G75*
G03*
X15102192Y-11421821I-63254J40298D01*
G01*
D13*
X15180000Y-16002000D02*
G75*
G03*
X15030000Y-16002000I-75000J0D01*
G01*
X15030000Y-16002000D02*
G75*
G03*
X15180000Y-16002000I75000J0D01*
G01*
D10*
X15102192Y-15866821D02*
X14981299Y-16056584D01*
X14981299Y-16056584D02*
G75*
G03*
X15107808Y-16137179I63254J-40298D01*
G01*
X15107808Y-16137179D02*
X15228701Y-15947416D01*
X15228701Y-15947416D02*
G75*
G03*
X15102192Y-15866821I-63254J40298D01*
G01*
D13*
X15757500Y-9525000D02*
G75*
G03*
X15607500Y-9525000I-75000J0D01*
G01*
X15607500Y-9525000D02*
G75*
G03*
X15757500Y-9525000I75000J0D01*
G01*
D10*
X15609646Y-9490966D02*
X15605701Y-9548832D01*
X15605701Y-9548832D02*
G75*
G03*
X15755354Y-9559034I74826J-5101D01*
G01*
X15755354Y-9559034D02*
X15759299Y-9501168D01*
X15759299Y-9501168D02*
G75*
G03*
X15609646Y-9490966I-74826J5101D01*
G01*
D13*
X15757500Y-11430000D02*
G75*
G03*
X15607500Y-11430000I-75000J0D01*
G01*
X15607500Y-11430000D02*
G75*
G03*
X15757500Y-11430000I75000J0D01*
G01*
D10*
X15609646Y-11395966D02*
X15605701Y-11453832D01*
X15605701Y-11453832D02*
G75*
G03*
X15755354Y-11464034I74826J-5101D01*
G01*
X15755354Y-11464034D02*
X15759299Y-11406168D01*
X15759299Y-11406168D02*
G75*
G03*
X15609646Y-11395966I-74826J5101D01*
G01*
D13*
X15757500Y-15875000D02*
G75*
G03*
X15607500Y-15875000I-75000J0D01*
G01*
X15607500Y-15875000D02*
G75*
G03*
X15757500Y-15875000I75000J0D01*
G01*
D10*
X15609646Y-15840966D02*
X15605701Y-15898832D01*
X15605701Y-15898832D02*
G75*
G03*
X15755354Y-15909034I74826J-5101D01*
G01*
X15755354Y-15909034D02*
X15759299Y-15851168D01*
X15759299Y-15851168D02*
G75*
G03*
X15609646Y-15840966I-74826J5101D01*
G01*
D13*
X22744500Y-9652000D02*
G75*
G03*
X22594500Y-9652000I-75000J0D01*
G01*
X22594500Y-9652000D02*
G75*
G03*
X22744500Y-9652000I75000J0D01*
G01*
D10*
X22666692Y-9516821D02*
X22545799Y-9706584D01*
X22545799Y-9706584D02*
G75*
G03*
X22672308Y-9787179I63254J-40298D01*
G01*
X22672308Y-9787179D02*
X22793201Y-9597416D01*
X22793201Y-9597416D02*
G75*
G03*
X22666692Y-9516821I-63254J40298D01*
G01*
D13*
X22744500Y-11557000D02*
G75*
G03*
X22594500Y-11557000I-75000J0D01*
G01*
X22594500Y-11557000D02*
G75*
G03*
X22744500Y-11557000I75000J0D01*
G01*
D10*
X22666692Y-11421821D02*
X22545799Y-11611584D01*
X22545799Y-11611584D02*
G75*
G03*
X22672308Y-11692179I63254J-40298D01*
G01*
X22672308Y-11692179D02*
X22793201Y-11502416D01*
X22793201Y-11502416D02*
G75*
G03*
X22666692Y-11421821I-63254J40298D01*
G01*
D13*
X22744500Y-16002000D02*
G75*
G03*
X22594500Y-16002000I-75000J0D01*
G01*
X22594500Y-16002000D02*
G75*
G03*
X22744500Y-16002000I75000J0D01*
G01*
D10*
X22666692Y-15866821D02*
X22545799Y-16056584D01*
X22545799Y-16056584D02*
G75*
G03*
X22672308Y-16137179I63254J-40298D01*
G01*
X22672308Y-16137179D02*
X22793201Y-15947416D01*
X22793201Y-15947416D02*
G75*
G03*
X22666692Y-15866821I-63254J40298D01*
G01*
D13*
X23322000Y-9525000D02*
G75*
G03*
X23172000Y-9525000I-75000J0D01*
G01*
X23172000Y-9525000D02*
G75*
G03*
X23322000Y-9525000I75000J0D01*
G01*
D10*
X23174146Y-9490966D02*
X23170201Y-9548832D01*
X23170201Y-9548832D02*
G75*
G03*
X23319854Y-9559034I74826J-5101D01*
G01*
X23319854Y-9559034D02*
X23323799Y-9501168D01*
X23323799Y-9501168D02*
G75*
G03*
X23174146Y-9490966I-74826J5101D01*
G01*
D13*
X23322000Y-11430000D02*
G75*
G03*
X23172000Y-11430000I-75000J0D01*
G01*
X23172000Y-11430000D02*
G75*
G03*
X23322000Y-11430000I75000J0D01*
G01*
D10*
X23174146Y-11395966D02*
X23170201Y-11453832D01*
X23170201Y-11453832D02*
G75*
G03*
X23319854Y-11464034I74826J-5101D01*
G01*
X23319854Y-11464034D02*
X23323799Y-11406168D01*
X23323799Y-11406168D02*
G75*
G03*
X23174146Y-11395966I-74826J5101D01*
G01*
D13*
X23322000Y-15875000D02*
G75*
G03*
X23172000Y-15875000I-75000J0D01*
G01*
X23172000Y-15875000D02*
G75*
G03*
X23322000Y-15875000I75000J0D01*
G01*
D10*
X23174146Y-15840966D02*
X23170201Y-15898832D01*
X23170201Y-15898832D02*
G75*
G03*
X23319854Y-15909034I74826J-5101D01*
G01*
X23319854Y-15909034D02*
X23323799Y-15851168D01*
X23323799Y-15851168D02*
G75*
G03*
X23174146Y-15840966I-74826J5101D01*
G01*
D13*
X25157500Y-9652000D02*
G75*
G03*
X25007500Y-9652000I-75000J0D01*
G01*
X25007500Y-9652000D02*
G75*
G03*
X25157500Y-9652000I75000J0D01*
G01*
D10*
X25079692Y-9516821D02*
X24958799Y-9706584D01*
X24958799Y-9706584D02*
G75*
G03*
X25085308Y-9787179I63254J-40298D01*
G01*
X25085308Y-9787179D02*
X25206201Y-9597416D01*
X25206201Y-9597416D02*
G75*
G03*
X25079692Y-9516821I-63254J40298D01*
G01*
D13*
X25157500Y-11557000D02*
G75*
G03*
X25007500Y-11557000I-75000J0D01*
G01*
X25007500Y-11557000D02*
G75*
G03*
X25157500Y-11557000I75000J0D01*
G01*
D10*
X25079692Y-11421821D02*
X24958799Y-11611584D01*
X24958799Y-11611584D02*
G75*
G03*
X25085308Y-11692179I63254J-40298D01*
G01*
X25085308Y-11692179D02*
X25206201Y-11502416D01*
X25206201Y-11502416D02*
G75*
G03*
X25079692Y-11421821I-63254J40298D01*
G01*
D13*
X25157500Y-16002000D02*
G75*
G03*
X25007500Y-16002000I-75000J0D01*
G01*
X25007500Y-16002000D02*
G75*
G03*
X25157500Y-16002000I75000J0D01*
G01*
D10*
X25079692Y-15866821D02*
X24958799Y-16056584D01*
X24958799Y-16056584D02*
G75*
G03*
X25085308Y-16137179I63254J-40298D01*
G01*
X25085308Y-16137179D02*
X25206201Y-15947416D01*
X25206201Y-15947416D02*
G75*
G03*
X25079692Y-15866821I-63254J40298D01*
G01*
D13*
X25735000Y-9525000D02*
G75*
G03*
X25585000Y-9525000I-75000J0D01*
G01*
X25585000Y-9525000D02*
G75*
G03*
X25735000Y-9525000I75000J0D01*
G01*
D10*
X25587146Y-9490966D02*
X25583201Y-9548832D01*
X25583201Y-9548832D02*
G75*
G03*
X25732854Y-9559034I74826J-5101D01*
G01*
X25732854Y-9559034D02*
X25736799Y-9501168D01*
X25736799Y-9501168D02*
G75*
G03*
X25587146Y-9490966I-74826J5101D01*
G01*
D13*
X25735000Y-11430000D02*
G75*
G03*
X25585000Y-11430000I-75000J0D01*
G01*
X25585000Y-11430000D02*
G75*
G03*
X25735000Y-11430000I75000J0D01*
G01*
D10*
X25587146Y-11395966D02*
X25583201Y-11453832D01*
X25583201Y-11453832D02*
G75*
G03*
X25732854Y-11464034I74826J-5101D01*
G01*
X25732854Y-11464034D02*
X25736799Y-11406168D01*
X25736799Y-11406168D02*
G75*
G03*
X25587146Y-11395966I-74826J5101D01*
G01*
D13*
X25735000Y-15875000D02*
G75*
G03*
X25585000Y-15875000I-75000J0D01*
G01*
X25585000Y-15875000D02*
G75*
G03*
X25735000Y-15875000I75000J0D01*
G01*
D10*
X25587146Y-15840966D02*
X25583201Y-15898832D01*
X25583201Y-15898832D02*
G75*
G03*
X25732854Y-15909034I74826J-5101D01*
G01*
X25732854Y-15909034D02*
X25736799Y-15851168D01*
X25736799Y-15851168D02*
G75*
G03*
X25587146Y-15840966I-74826J5101D01*
G01*
D13*
X27570500Y-9652000D02*
G75*
G03*
X27420500Y-9652000I-75000J0D01*
G01*
X27420500Y-9652000D02*
G75*
G03*
X27570500Y-9652000I75000J0D01*
G01*
D10*
X27492692Y-9516821D02*
X27371799Y-9706584D01*
X27371799Y-9706584D02*
G75*
G03*
X27498308Y-9787179I63254J-40298D01*
G01*
X27498308Y-9787179D02*
X27619201Y-9597416D01*
X27619201Y-9597416D02*
G75*
G03*
X27492692Y-9516821I-63254J40298D01*
G01*
D13*
X27570500Y-11557000D02*
G75*
G03*
X27420500Y-11557000I-75000J0D01*
G01*
X27420500Y-11557000D02*
G75*
G03*
X27570500Y-11557000I75000J0D01*
G01*
D10*
X27492692Y-11421821D02*
X27371799Y-11611584D01*
X27371799Y-11611584D02*
G75*
G03*
X27498308Y-11692179I63254J-40298D01*
G01*
X27498308Y-11692179D02*
X27619201Y-11502416D01*
X27619201Y-11502416D02*
G75*
G03*
X27492692Y-11421821I-63254J40298D01*
G01*
D13*
X27570500Y-16002000D02*
G75*
G03*
X27420500Y-16002000I-75000J0D01*
G01*
X27420500Y-16002000D02*
G75*
G03*
X27570500Y-16002000I75000J0D01*
G01*
D10*
X27492692Y-15866821D02*
X27371799Y-16056584D01*
X27371799Y-16056584D02*
G75*
G03*
X27498308Y-16137179I63254J-40298D01*
G01*
X27498308Y-16137179D02*
X27619201Y-15947416D01*
X27619201Y-15947416D02*
G75*
G03*
X27492692Y-15866821I-63254J40298D01*
G01*
D13*
X28148000Y-9525000D02*
G75*
G03*
X27998000Y-9525000I-75000J0D01*
G01*
X27998000Y-9525000D02*
G75*
G03*
X28148000Y-9525000I75000J0D01*
G01*
D10*
X28000146Y-9490966D02*
X27996201Y-9548832D01*
X27996201Y-9548832D02*
G75*
G03*
X28145854Y-9559034I74826J-5101D01*
G01*
X28145854Y-9559034D02*
X28149799Y-9501168D01*
X28149799Y-9501168D02*
G75*
G03*
X28000146Y-9490966I-74826J5101D01*
G01*
D13*
X28148000Y-11430000D02*
G75*
G03*
X27998000Y-11430000I-75000J0D01*
G01*
X27998000Y-11430000D02*
G75*
G03*
X28148000Y-11430000I75000J0D01*
G01*
D10*
X28000146Y-11395966D02*
X27996201Y-11453832D01*
X27996201Y-11453832D02*
G75*
G03*
X28145854Y-11464034I74826J-5101D01*
G01*
X28145854Y-11464034D02*
X28149799Y-11406168D01*
X28149799Y-11406168D02*
G75*
G03*
X28000146Y-11395966I-74826J5101D01*
G01*
D13*
X28148000Y-15875000D02*
G75*
G03*
X27998000Y-15875000I-75000J0D01*
G01*
X27998000Y-15875000D02*
G75*
G03*
X28148000Y-15875000I75000J0D01*
G01*
D10*
X28000146Y-15840966D02*
X27996201Y-15898832D01*
X27996201Y-15898832D02*
G75*
G03*
X28145854Y-15909034I74826J-5101D01*
G01*
X28145854Y-15909034D02*
X28149799Y-15851168D01*
X28149799Y-15851168D02*
G75*
G03*
X28000146Y-15840966I-74826J5101D01*
G01*
D13*
X29983500Y-9652000D02*
G75*
G03*
X29833500Y-9652000I-75000J0D01*
G01*
X29833500Y-9652000D02*
G75*
G03*
X29983500Y-9652000I75000J0D01*
G01*
D10*
X29905692Y-9516821D02*
X29784799Y-9706584D01*
X29784799Y-9706584D02*
G75*
G03*
X29911308Y-9787179I63254J-40298D01*
G01*
X29911308Y-9787179D02*
X30032201Y-9597416D01*
X30032201Y-9597416D02*
G75*
G03*
X29905692Y-9516821I-63254J40298D01*
G01*
D13*
X29983500Y-11557000D02*
G75*
G03*
X29833500Y-11557000I-75000J0D01*
G01*
X29833500Y-11557000D02*
G75*
G03*
X29983500Y-11557000I75000J0D01*
G01*
D10*
X29905692Y-11421821D02*
X29784799Y-11611584D01*
X29784799Y-11611584D02*
G75*
G03*
X29911308Y-11692179I63254J-40298D01*
G01*
X29911308Y-11692179D02*
X30032201Y-11502416D01*
X30032201Y-11502416D02*
G75*
G03*
X29905692Y-11421821I-63254J40298D01*
G01*
D13*
X30561000Y-9525000D02*
G75*
G03*
X30411000Y-9525000I-75000J0D01*
G01*
X30411000Y-9525000D02*
G75*
G03*
X30561000Y-9525000I75000J0D01*
G01*
D10*
X30413146Y-9490966D02*
X30409201Y-9548832D01*
X30409201Y-9548832D02*
G75*
G03*
X30558854Y-9559034I74826J-5101D01*
G01*
X30558854Y-9559034D02*
X30562799Y-9501168D01*
X30562799Y-9501168D02*
G75*
G03*
X30413146Y-9490966I-74826J5101D01*
G01*
D13*
X30561000Y-11430000D02*
G75*
G03*
X30411000Y-11430000I-75000J0D01*
G01*
X30411000Y-11430000D02*
G75*
G03*
X30561000Y-11430000I75000J0D01*
G01*
D10*
X30413146Y-11395966D02*
X30409201Y-11453832D01*
X30409201Y-11453832D02*
G75*
G03*
X30558854Y-11464034I74826J-5101D01*
G01*
X30558854Y-11464034D02*
X30562799Y-11406168D01*
X30562799Y-11406168D02*
G75*
G03*
X30413146Y-11395966I-74826J5101D01*
G01*
D13*
X32396500Y-9652000D02*
G75*
G03*
X32246500Y-9652000I-75000J0D01*
G01*
X32246500Y-9652000D02*
G75*
G03*
X32396500Y-9652000I75000J0D01*
G01*
D10*
X32318692Y-9516821D02*
X32197799Y-9706584D01*
X32197799Y-9706584D02*
G75*
G03*
X32324308Y-9787179I63254J-40298D01*
G01*
X32324308Y-9787179D02*
X32445201Y-9597416D01*
X32445201Y-9597416D02*
G75*
G03*
X32318692Y-9516821I-63254J40298D01*
G01*
D13*
X32396500Y-11557000D02*
G75*
G03*
X32246500Y-11557000I-75000J0D01*
G01*
X32246500Y-11557000D02*
G75*
G03*
X32396500Y-11557000I75000J0D01*
G01*
D10*
X32318692Y-11421821D02*
X32197799Y-11611584D01*
X32197799Y-11611584D02*
G75*
G03*
X32324308Y-11692179I63254J-40298D01*
G01*
X32324308Y-11692179D02*
X32445201Y-11502416D01*
X32445201Y-11502416D02*
G75*
G03*
X32318692Y-11421821I-63254J40298D01*
G01*
D13*
X32974000Y-9525000D02*
G75*
G03*
X32824000Y-9525000I-75000J0D01*
G01*
X32824000Y-9525000D02*
G75*
G03*
X32974000Y-9525000I75000J0D01*
G01*
D10*
X32826146Y-9490966D02*
X32822201Y-9548832D01*
X32822201Y-9548832D02*
G75*
G03*
X32971854Y-9559034I74826J-5101D01*
G01*
X32971854Y-9559034D02*
X32975799Y-9501168D01*
X32975799Y-9501168D02*
G75*
G03*
X32826146Y-9490966I-74826J5101D01*
G01*
D13*
X32974000Y-11430000D02*
G75*
G03*
X32824000Y-11430000I-75000J0D01*
G01*
X32824000Y-11430000D02*
G75*
G03*
X32974000Y-11430000I75000J0D01*
G01*
D10*
X32826146Y-11395966D02*
X32822201Y-11453832D01*
X32822201Y-11453832D02*
G75*
G03*
X32971854Y-11464034I74826J-5101D01*
G01*
X32971854Y-11464034D02*
X32975799Y-11406168D01*
X32975799Y-11406168D02*
G75*
G03*
X32826146Y-11395966I-74826J5101D01*
G01*
D13*
X34809500Y-9652000D02*
G75*
G03*
X34659500Y-9652000I-75000J0D01*
G01*
X34659500Y-9652000D02*
G75*
G03*
X34809500Y-9652000I75000J0D01*
G01*
D10*
X34731692Y-9516821D02*
X34610799Y-9706584D01*
X34610799Y-9706584D02*
G75*
G03*
X34737308Y-9787179I63254J-40298D01*
G01*
X34737308Y-9787179D02*
X34858201Y-9597416D01*
X34858201Y-9597416D02*
G75*
G03*
X34731692Y-9516821I-63254J40298D01*
G01*
D13*
X34809500Y-11557000D02*
G75*
G03*
X34659500Y-11557000I-75000J0D01*
G01*
X34659500Y-11557000D02*
G75*
G03*
X34809500Y-11557000I75000J0D01*
G01*
D10*
X34731692Y-11421821D02*
X34610799Y-11611584D01*
X34610799Y-11611584D02*
G75*
G03*
X34737308Y-11692179I63254J-40298D01*
G01*
X34737308Y-11692179D02*
X34858201Y-11502416D01*
X34858201Y-11502416D02*
G75*
G03*
X34731692Y-11421821I-63254J40298D01*
G01*
D13*
X35387000Y-9525000D02*
G75*
G03*
X35237000Y-9525000I-75000J0D01*
G01*
X35237000Y-9525000D02*
G75*
G03*
X35387000Y-9525000I75000J0D01*
G01*
D10*
X35239146Y-9490966D02*
X35235201Y-9548832D01*
X35235201Y-9548832D02*
G75*
G03*
X35384854Y-9559034I74826J-5101D01*
G01*
X35384854Y-9559034D02*
X35388799Y-9501168D01*
X35388799Y-9501168D02*
G75*
G03*
X35239146Y-9490966I-74826J5101D01*
G01*
D13*
X35387000Y-11430000D02*
G75*
G03*
X35237000Y-11430000I-75000J0D01*
G01*
X35237000Y-11430000D02*
G75*
G03*
X35387000Y-11430000I75000J0D01*
G01*
D10*
X35239146Y-11395966D02*
X35235201Y-11453832D01*
X35235201Y-11453832D02*
G75*
G03*
X35384854Y-11464034I74826J-5101D01*
G01*
X35384854Y-11464034D02*
X35388799Y-11406168D01*
X35388799Y-11406168D02*
G75*
G03*
X35239146Y-11395966I-74826J5101D01*
G01*
D11*
X4573777Y-17842484D02*
X4573777Y-17642484D01*
X4573777Y-17642484D02*
X4621396Y-17642484D01*
X4621396Y-17642484D02*
X4649967Y-17652008D01*
X4649967Y-17652008D02*
X4669015Y-17671055D01*
X4669015Y-17671055D02*
X4678539Y-17690103D01*
X4678539Y-17690103D02*
X4688063Y-17728198D01*
X4688063Y-17728198D02*
X4688063Y-17756770D01*
X4688063Y-17756770D02*
X4678539Y-17794865D01*
X4678539Y-17794865D02*
X4669015Y-17813912D01*
X4669015Y-17813912D02*
X4649967Y-17832960D01*
X4649967Y-17832960D02*
X4621396Y-17842484D01*
X4621396Y-17842484D02*
X4573777Y-17842484D01*
X4773777Y-17842484D02*
X4773777Y-17709150D01*
X4773777Y-17747246D02*
X4783301Y-17728198D01*
X4783301Y-17728198D02*
X4792824Y-17718674D01*
X4792824Y-17718674D02*
X4811872Y-17709150D01*
X4811872Y-17709150D02*
X4830920Y-17709150D01*
X4897586Y-17842484D02*
X4897586Y-17709150D01*
X4897586Y-17642484D02*
X4888063Y-17652008D01*
X4888063Y-17652008D02*
X4897586Y-17661531D01*
X4897586Y-17661531D02*
X4907110Y-17652008D01*
X4907110Y-17652008D02*
X4897586Y-17642484D01*
X4897586Y-17642484D02*
X4897586Y-17661531D01*
X5021396Y-17842484D02*
X5002348Y-17832960D01*
X5002348Y-17832960D02*
X4992824Y-17813912D01*
X4992824Y-17813912D02*
X4992824Y-17642484D01*
X5126158Y-17842484D02*
X5107110Y-17832960D01*
X5107110Y-17832960D02*
X5097586Y-17813912D01*
X5097586Y-17813912D02*
X5097586Y-17642484D01*
X5354729Y-17842484D02*
X5354729Y-17642484D01*
X5354729Y-17642484D02*
X5421396Y-17785341D01*
X5421396Y-17785341D02*
X5488063Y-17642484D01*
X5488063Y-17642484D02*
X5488063Y-17842484D01*
X5669015Y-17842484D02*
X5669015Y-17737722D01*
X5669015Y-17737722D02*
X5659491Y-17718674D01*
X5659491Y-17718674D02*
X5640443Y-17709150D01*
X5640443Y-17709150D02*
X5602348Y-17709150D01*
X5602348Y-17709150D02*
X5583301Y-17718674D01*
X5669015Y-17832960D02*
X5649967Y-17842484D01*
X5649967Y-17842484D02*
X5602348Y-17842484D01*
X5602348Y-17842484D02*
X5583301Y-17832960D01*
X5583301Y-17832960D02*
X5573777Y-17813912D01*
X5573777Y-17813912D02*
X5573777Y-17794865D01*
X5573777Y-17794865D02*
X5583301Y-17775817D01*
X5583301Y-17775817D02*
X5602348Y-17766293D01*
X5602348Y-17766293D02*
X5649967Y-17766293D01*
X5649967Y-17766293D02*
X5669015Y-17756770D01*
X5764253Y-17709150D02*
X5764253Y-17909150D01*
X5764253Y-17718674D02*
X5783301Y-17709150D01*
X5783301Y-17709150D02*
X5821396Y-17709150D01*
X5821396Y-17709150D02*
X5840443Y-17718674D01*
X5840443Y-17718674D02*
X5849967Y-17728198D01*
X5849967Y-17728198D02*
X5859491Y-17747246D01*
X5859491Y-17747246D02*
X5859491Y-17804389D01*
X5859491Y-17804389D02*
X5849967Y-17823436D01*
X5849967Y-17823436D02*
X5840443Y-17832960D01*
X5840443Y-17832960D02*
X5821396Y-17842484D01*
X5821396Y-17842484D02*
X5783301Y-17842484D01*
X5783301Y-17842484D02*
X5764253Y-17832960D01*
X5945205Y-17823436D02*
X5954729Y-17832960D01*
X5954729Y-17832960D02*
X5945205Y-17842484D01*
X5945205Y-17842484D02*
X5935682Y-17832960D01*
X5935682Y-17832960D02*
X5945205Y-17823436D01*
X5945205Y-17823436D02*
X5945205Y-17842484D01*
X5945205Y-17718674D02*
X5954729Y-17728198D01*
X5954729Y-17728198D02*
X5945205Y-17737722D01*
X5945205Y-17737722D02*
X5935682Y-17728198D01*
X5935682Y-17728198D02*
X5945205Y-17718674D01*
X5945205Y-17718674D02*
X5945205Y-17737722D01*
D12*
X4203000Y-18116000D02*
X4313000Y-18226000D01*
X4313000Y-18116000D02*
X4203000Y-18226000D01*
D11*
X4678539Y-18262484D02*
X4564253Y-18262484D01*
X4621396Y-18262484D02*
X4621396Y-18062484D01*
X4621396Y-18062484D02*
X4602348Y-18091055D01*
X4602348Y-18091055D02*
X4583301Y-18110103D01*
X4583301Y-18110103D02*
X4564253Y-18119627D01*
X4764253Y-18243436D02*
X4773777Y-18252960D01*
X4773777Y-18252960D02*
X4764253Y-18262484D01*
X4764253Y-18262484D02*
X4754729Y-18252960D01*
X4754729Y-18252960D02*
X4764253Y-18243436D01*
X4764253Y-18243436D02*
X4764253Y-18262484D01*
X4964253Y-18262484D02*
X4849967Y-18262484D01*
X4907110Y-18262484D02*
X4907110Y-18062484D01*
X4907110Y-18062484D02*
X4888063Y-18091055D01*
X4888063Y-18091055D02*
X4869015Y-18110103D01*
X4869015Y-18110103D02*
X4849967Y-18119627D01*
X5088063Y-18062484D02*
X5107110Y-18062484D01*
X5107110Y-18062484D02*
X5126158Y-18072008D01*
X5126158Y-18072008D02*
X5135682Y-18081531D01*
X5135682Y-18081531D02*
X5145205Y-18100579D01*
X5145205Y-18100579D02*
X5154729Y-18138674D01*
X5154729Y-18138674D02*
X5154729Y-18186293D01*
X5154729Y-18186293D02*
X5145205Y-18224389D01*
X5145205Y-18224389D02*
X5135682Y-18243436D01*
X5135682Y-18243436D02*
X5126158Y-18252960D01*
X5126158Y-18252960D02*
X5107110Y-18262484D01*
X5107110Y-18262484D02*
X5088063Y-18262484D01*
X5088063Y-18262484D02*
X5069015Y-18252960D01*
X5069015Y-18252960D02*
X5059491Y-18243436D01*
X5059491Y-18243436D02*
X5049967Y-18224389D01*
X5049967Y-18224389D02*
X5040444Y-18186293D01*
X5040444Y-18186293D02*
X5040444Y-18138674D01*
X5040444Y-18138674D02*
X5049967Y-18100579D01*
X5049967Y-18100579D02*
X5059491Y-18081531D01*
X5059491Y-18081531D02*
X5069015Y-18072008D01*
X5069015Y-18072008D02*
X5088063Y-18062484D01*
X5278539Y-18062484D02*
X5297586Y-18062484D01*
X5297586Y-18062484D02*
X5316634Y-18072008D01*
X5316634Y-18072008D02*
X5326158Y-18081531D01*
X5326158Y-18081531D02*
X5335682Y-18100579D01*
X5335682Y-18100579D02*
X5345205Y-18138674D01*
X5345205Y-18138674D02*
X5345205Y-18186293D01*
X5345205Y-18186293D02*
X5335682Y-18224389D01*
X5335682Y-18224389D02*
X5326158Y-18243436D01*
X5326158Y-18243436D02*
X5316634Y-18252960D01*
X5316634Y-18252960D02*
X5297586Y-18262484D01*
X5297586Y-18262484D02*
X5278539Y-18262484D01*
X5278539Y-18262484D02*
X5259491Y-18252960D01*
X5259491Y-18252960D02*
X5249967Y-18243436D01*
X5249967Y-18243436D02*
X5240444Y-18224389D01*
X5240444Y-18224389D02*
X5230920Y-18186293D01*
X5230920Y-18186293D02*
X5230920Y-18138674D01*
X5230920Y-18138674D02*
X5240444Y-18100579D01*
X5240444Y-18100579D02*
X5249967Y-18081531D01*
X5249967Y-18081531D02*
X5259491Y-18072008D01*
X5259491Y-18072008D02*
X5278539Y-18062484D01*
X5430920Y-18262484D02*
X5430920Y-18129150D01*
X5430920Y-18148198D02*
X5440444Y-18138674D01*
X5440444Y-18138674D02*
X5459491Y-18129150D01*
X5459491Y-18129150D02*
X5488063Y-18129150D01*
X5488063Y-18129150D02*
X5507110Y-18138674D01*
X5507110Y-18138674D02*
X5516634Y-18157722D01*
X5516634Y-18157722D02*
X5516634Y-18262484D01*
X5516634Y-18157722D02*
X5526158Y-18138674D01*
X5526158Y-18138674D02*
X5545205Y-18129150D01*
X5545205Y-18129150D02*
X5573777Y-18129150D01*
X5573777Y-18129150D02*
X5592824Y-18138674D01*
X5592824Y-18138674D02*
X5602348Y-18157722D01*
X5602348Y-18157722D02*
X5602348Y-18262484D01*
X5697586Y-18262484D02*
X5697586Y-18129150D01*
X5697586Y-18148198D02*
X5707110Y-18138674D01*
X5707110Y-18138674D02*
X5726158Y-18129150D01*
X5726158Y-18129150D02*
X5754729Y-18129150D01*
X5754729Y-18129150D02*
X5773777Y-18138674D01*
X5773777Y-18138674D02*
X5783301Y-18157722D01*
X5783301Y-18157722D02*
X5783301Y-18262484D01*
X5783301Y-18157722D02*
X5792824Y-18138674D01*
X5792824Y-18138674D02*
X5811872Y-18129150D01*
X5811872Y-18129150D02*
X5840443Y-18129150D01*
X5840443Y-18129150D02*
X5859491Y-18138674D01*
X5859491Y-18138674D02*
X5869015Y-18157722D01*
X5869015Y-18157722D02*
X5869015Y-18262484D01*
X6259491Y-18052960D02*
X6088063Y-18310103D01*
X6516634Y-18062484D02*
X6535682Y-18062484D01*
X6535682Y-18062484D02*
X6554729Y-18072008D01*
X6554729Y-18072008D02*
X6564253Y-18081531D01*
X6564253Y-18081531D02*
X6573777Y-18100579D01*
X6573777Y-18100579D02*
X6583301Y-18138674D01*
X6583301Y-18138674D02*
X6583301Y-18186293D01*
X6583301Y-18186293D02*
X6573777Y-18224389D01*
X6573777Y-18224389D02*
X6564253Y-18243436D01*
X6564253Y-18243436D02*
X6554729Y-18252960D01*
X6554729Y-18252960D02*
X6535682Y-18262484D01*
X6535682Y-18262484D02*
X6516634Y-18262484D01*
X6516634Y-18262484D02*
X6497586Y-18252960D01*
X6497586Y-18252960D02*
X6488063Y-18243436D01*
X6488063Y-18243436D02*
X6478539Y-18224389D01*
X6478539Y-18224389D02*
X6469015Y-18186293D01*
X6469015Y-18186293D02*
X6469015Y-18138674D01*
X6469015Y-18138674D02*
X6478539Y-18100579D01*
X6478539Y-18100579D02*
X6488063Y-18081531D01*
X6488063Y-18081531D02*
X6497586Y-18072008D01*
X6497586Y-18072008D02*
X6516634Y-18062484D01*
X6669015Y-18243436D02*
X6678539Y-18252960D01*
X6678539Y-18252960D02*
X6669015Y-18262484D01*
X6669015Y-18262484D02*
X6659491Y-18252960D01*
X6659491Y-18252960D02*
X6669015Y-18243436D01*
X6669015Y-18243436D02*
X6669015Y-18262484D01*
X6802348Y-18062484D02*
X6821396Y-18062484D01*
X6821396Y-18062484D02*
X6840444Y-18072008D01*
X6840444Y-18072008D02*
X6849967Y-18081531D01*
X6849967Y-18081531D02*
X6859491Y-18100579D01*
X6859491Y-18100579D02*
X6869015Y-18138674D01*
X6869015Y-18138674D02*
X6869015Y-18186293D01*
X6869015Y-18186293D02*
X6859491Y-18224389D01*
X6859491Y-18224389D02*
X6849967Y-18243436D01*
X6849967Y-18243436D02*
X6840444Y-18252960D01*
X6840444Y-18252960D02*
X6821396Y-18262484D01*
X6821396Y-18262484D02*
X6802348Y-18262484D01*
X6802348Y-18262484D02*
X6783301Y-18252960D01*
X6783301Y-18252960D02*
X6773777Y-18243436D01*
X6773777Y-18243436D02*
X6764253Y-18224389D01*
X6764253Y-18224389D02*
X6754729Y-18186293D01*
X6754729Y-18186293D02*
X6754729Y-18138674D01*
X6754729Y-18138674D02*
X6764253Y-18100579D01*
X6764253Y-18100579D02*
X6773777Y-18081531D01*
X6773777Y-18081531D02*
X6783301Y-18072008D01*
X6783301Y-18072008D02*
X6802348Y-18062484D01*
X7040444Y-18129150D02*
X7040444Y-18262484D01*
X6992825Y-18052960D02*
X6945206Y-18195817D01*
X6945206Y-18195817D02*
X7069015Y-18195817D01*
X7126158Y-18062484D02*
X7249967Y-18062484D01*
X7249967Y-18062484D02*
X7183301Y-18138674D01*
X7183301Y-18138674D02*
X7211872Y-18138674D01*
X7211872Y-18138674D02*
X7230920Y-18148198D01*
X7230920Y-18148198D02*
X7240444Y-18157722D01*
X7240444Y-18157722D02*
X7249967Y-18176770D01*
X7249967Y-18176770D02*
X7249967Y-18224389D01*
X7249967Y-18224389D02*
X7240444Y-18243436D01*
X7240444Y-18243436D02*
X7230920Y-18252960D01*
X7230920Y-18252960D02*
X7211872Y-18262484D01*
X7211872Y-18262484D02*
X7154729Y-18262484D01*
X7154729Y-18262484D02*
X7135682Y-18252960D01*
X7135682Y-18252960D02*
X7126158Y-18243436D01*
X7316634Y-18062484D02*
X7440444Y-18062484D01*
X7440444Y-18062484D02*
X7373777Y-18138674D01*
X7373777Y-18138674D02*
X7402348Y-18138674D01*
X7402348Y-18138674D02*
X7421396Y-18148198D01*
X7421396Y-18148198D02*
X7430920Y-18157722D01*
X7430920Y-18157722D02*
X7440444Y-18176770D01*
X7440444Y-18176770D02*
X7440444Y-18224389D01*
X7440444Y-18224389D02*
X7430920Y-18243436D01*
X7430920Y-18243436D02*
X7421396Y-18252960D01*
X7421396Y-18252960D02*
X7402348Y-18262484D01*
X7402348Y-18262484D02*
X7345206Y-18262484D01*
X7345206Y-18262484D02*
X7326158Y-18252960D01*
X7326158Y-18252960D02*
X7316634Y-18243436D01*
X7516634Y-18062484D02*
X7516634Y-18100579D01*
X7592825Y-18062484D02*
X7592825Y-18100579D01*
X7888063Y-18338674D02*
X7878539Y-18329150D01*
X7878539Y-18329150D02*
X7859491Y-18300579D01*
X7859491Y-18300579D02*
X7849968Y-18281531D01*
X7849968Y-18281531D02*
X7840444Y-18252960D01*
X7840444Y-18252960D02*
X7830920Y-18205341D01*
X7830920Y-18205341D02*
X7830920Y-18167246D01*
X7830920Y-18167246D02*
X7840444Y-18119627D01*
X7840444Y-18119627D02*
X7849968Y-18091055D01*
X7849968Y-18091055D02*
X7859491Y-18072008D01*
X7859491Y-18072008D02*
X7878539Y-18043436D01*
X7878539Y-18043436D02*
X7888063Y-18033912D01*
X7954729Y-18081531D02*
X7964253Y-18072008D01*
X7964253Y-18072008D02*
X7983301Y-18062484D01*
X7983301Y-18062484D02*
X8030920Y-18062484D01*
X8030920Y-18062484D02*
X8049968Y-18072008D01*
X8049968Y-18072008D02*
X8059491Y-18081531D01*
X8059491Y-18081531D02*
X8069015Y-18100579D01*
X8069015Y-18100579D02*
X8069015Y-18119627D01*
X8069015Y-18119627D02*
X8059491Y-18148198D01*
X8059491Y-18148198D02*
X7945206Y-18262484D01*
X7945206Y-18262484D02*
X8069015Y-18262484D01*
X8240444Y-18129150D02*
X8240444Y-18262484D01*
X8192825Y-18052960D02*
X8145206Y-18195817D01*
X8145206Y-18195817D02*
X8269015Y-18195817D01*
X8497587Y-18262484D02*
X8497587Y-18062484D01*
X8583301Y-18262484D02*
X8583301Y-18157722D01*
X8583301Y-18157722D02*
X8573777Y-18138674D01*
X8573777Y-18138674D02*
X8554730Y-18129150D01*
X8554730Y-18129150D02*
X8526158Y-18129150D01*
X8526158Y-18129150D02*
X8507111Y-18138674D01*
X8507111Y-18138674D02*
X8497587Y-18148198D01*
X8707111Y-18262484D02*
X8688063Y-18252960D01*
X8688063Y-18252960D02*
X8678539Y-18243436D01*
X8678539Y-18243436D02*
X8669015Y-18224389D01*
X8669015Y-18224389D02*
X8669015Y-18167246D01*
X8669015Y-18167246D02*
X8678539Y-18148198D01*
X8678539Y-18148198D02*
X8688063Y-18138674D01*
X8688063Y-18138674D02*
X8707111Y-18129150D01*
X8707111Y-18129150D02*
X8735682Y-18129150D01*
X8735682Y-18129150D02*
X8754730Y-18138674D01*
X8754730Y-18138674D02*
X8764253Y-18148198D01*
X8764253Y-18148198D02*
X8773777Y-18167246D01*
X8773777Y-18167246D02*
X8773777Y-18224389D01*
X8773777Y-18224389D02*
X8764253Y-18243436D01*
X8764253Y-18243436D02*
X8754730Y-18252960D01*
X8754730Y-18252960D02*
X8735682Y-18262484D01*
X8735682Y-18262484D02*
X8707111Y-18262484D01*
X8888063Y-18262484D02*
X8869015Y-18252960D01*
X8869015Y-18252960D02*
X8859492Y-18233912D01*
X8859492Y-18233912D02*
X8859492Y-18062484D01*
X9040444Y-18252960D02*
X9021396Y-18262484D01*
X9021396Y-18262484D02*
X8983301Y-18262484D01*
X8983301Y-18262484D02*
X8964253Y-18252960D01*
X8964253Y-18252960D02*
X8954730Y-18233912D01*
X8954730Y-18233912D02*
X8954730Y-18157722D01*
X8954730Y-18157722D02*
X8964253Y-18138674D01*
X8964253Y-18138674D02*
X8983301Y-18129150D01*
X8983301Y-18129150D02*
X9021396Y-18129150D01*
X9021396Y-18129150D02*
X9040444Y-18138674D01*
X9040444Y-18138674D02*
X9049968Y-18157722D01*
X9049968Y-18157722D02*
X9049968Y-18176770D01*
X9049968Y-18176770D02*
X8954730Y-18195817D01*
X9126158Y-18252960D02*
X9145206Y-18262484D01*
X9145206Y-18262484D02*
X9183301Y-18262484D01*
X9183301Y-18262484D02*
X9202349Y-18252960D01*
X9202349Y-18252960D02*
X9211873Y-18233912D01*
X9211873Y-18233912D02*
X9211873Y-18224389D01*
X9211873Y-18224389D02*
X9202349Y-18205341D01*
X9202349Y-18205341D02*
X9183301Y-18195817D01*
X9183301Y-18195817D02*
X9154730Y-18195817D01*
X9154730Y-18195817D02*
X9135682Y-18186293D01*
X9135682Y-18186293D02*
X9126158Y-18167246D01*
X9126158Y-18167246D02*
X9126158Y-18157722D01*
X9126158Y-18157722D02*
X9135682Y-18138674D01*
X9135682Y-18138674D02*
X9154730Y-18129150D01*
X9154730Y-18129150D02*
X9183301Y-18129150D01*
X9183301Y-18129150D02*
X9202349Y-18138674D01*
X9278539Y-18338674D02*
X9288063Y-18329150D01*
X9288063Y-18329150D02*
X9307111Y-18300579D01*
X9307111Y-18300579D02*
X9316634Y-18281531D01*
X9316634Y-18281531D02*
X9326158Y-18252960D01*
X9326158Y-18252960D02*
X9335682Y-18205341D01*
X9335682Y-18205341D02*
X9335682Y-18167246D01*
X9335682Y-18167246D02*
X9326158Y-18119627D01*
X9326158Y-18119627D02*
X9316634Y-18091055D01*
X9316634Y-18091055D02*
X9307111Y-18072008D01*
X9307111Y-18072008D02*
X9288063Y-18043436D01*
X9288063Y-18043436D02*
X9278539Y-18033912D01*
D13*
X4313000Y-18435000D02*
G75*
G03*
X4163000Y-18435000I-75000J0D01*
G01*
X4163000Y-18435000D02*
G75*
G03*
X4313000Y-18435000I75000J0D01*
G01*
D11*
X4678539Y-18526484D02*
X4564253Y-18526484D01*
X4621396Y-18526484D02*
X4621396Y-18326484D01*
X4621396Y-18326484D02*
X4602348Y-18355055D01*
X4602348Y-18355055D02*
X4583301Y-18374103D01*
X4583301Y-18374103D02*
X4564253Y-18383627D01*
X4764253Y-18507436D02*
X4773777Y-18516960D01*
X4773777Y-18516960D02*
X4764253Y-18526484D01*
X4764253Y-18526484D02*
X4754729Y-18516960D01*
X4754729Y-18516960D02*
X4764253Y-18507436D01*
X4764253Y-18507436D02*
X4764253Y-18526484D01*
X4954729Y-18326484D02*
X4859491Y-18326484D01*
X4859491Y-18326484D02*
X4849967Y-18421722D01*
X4849967Y-18421722D02*
X4859491Y-18412198D01*
X4859491Y-18412198D02*
X4878539Y-18402674D01*
X4878539Y-18402674D02*
X4926158Y-18402674D01*
X4926158Y-18402674D02*
X4945205Y-18412198D01*
X4945205Y-18412198D02*
X4954729Y-18421722D01*
X4954729Y-18421722D02*
X4964253Y-18440770D01*
X4964253Y-18440770D02*
X4964253Y-18488389D01*
X4964253Y-18488389D02*
X4954729Y-18507436D01*
X4954729Y-18507436D02*
X4945205Y-18516960D01*
X4945205Y-18516960D02*
X4926158Y-18526484D01*
X4926158Y-18526484D02*
X4878539Y-18526484D01*
X4878539Y-18526484D02*
X4859491Y-18516960D01*
X4859491Y-18516960D02*
X4849967Y-18507436D01*
X5088063Y-18326484D02*
X5107110Y-18326484D01*
X5107110Y-18326484D02*
X5126158Y-18336008D01*
X5126158Y-18336008D02*
X5135682Y-18345531D01*
X5135682Y-18345531D02*
X5145205Y-18364579D01*
X5145205Y-18364579D02*
X5154729Y-18402674D01*
X5154729Y-18402674D02*
X5154729Y-18450293D01*
X5154729Y-18450293D02*
X5145205Y-18488389D01*
X5145205Y-18488389D02*
X5135682Y-18507436D01*
X5135682Y-18507436D02*
X5126158Y-18516960D01*
X5126158Y-18516960D02*
X5107110Y-18526484D01*
X5107110Y-18526484D02*
X5088063Y-18526484D01*
X5088063Y-18526484D02*
X5069015Y-18516960D01*
X5069015Y-18516960D02*
X5059491Y-18507436D01*
X5059491Y-18507436D02*
X5049967Y-18488389D01*
X5049967Y-18488389D02*
X5040444Y-18450293D01*
X5040444Y-18450293D02*
X5040444Y-18402674D01*
X5040444Y-18402674D02*
X5049967Y-18364579D01*
X5049967Y-18364579D02*
X5059491Y-18345531D01*
X5059491Y-18345531D02*
X5069015Y-18336008D01*
X5069015Y-18336008D02*
X5088063Y-18326484D01*
X5278539Y-18326484D02*
X5297586Y-18326484D01*
X5297586Y-18326484D02*
X5316634Y-18336008D01*
X5316634Y-18336008D02*
X5326158Y-18345531D01*
X5326158Y-18345531D02*
X5335682Y-18364579D01*
X5335682Y-18364579D02*
X5345205Y-18402674D01*
X5345205Y-18402674D02*
X5345205Y-18450293D01*
X5345205Y-18450293D02*
X5335682Y-18488389D01*
X5335682Y-18488389D02*
X5326158Y-18507436D01*
X5326158Y-18507436D02*
X5316634Y-18516960D01*
X5316634Y-18516960D02*
X5297586Y-18526484D01*
X5297586Y-18526484D02*
X5278539Y-18526484D01*
X5278539Y-18526484D02*
X5259491Y-18516960D01*
X5259491Y-18516960D02*
X5249967Y-18507436D01*
X5249967Y-18507436D02*
X5240444Y-18488389D01*
X5240444Y-18488389D02*
X5230920Y-18450293D01*
X5230920Y-18450293D02*
X5230920Y-18402674D01*
X5230920Y-18402674D02*
X5240444Y-18364579D01*
X5240444Y-18364579D02*
X5249967Y-18345531D01*
X5249967Y-18345531D02*
X5259491Y-18336008D01*
X5259491Y-18336008D02*
X5278539Y-18326484D01*
X5430920Y-18526484D02*
X5430920Y-18393150D01*
X5430920Y-18412198D02*
X5440444Y-18402674D01*
X5440444Y-18402674D02*
X5459491Y-18393150D01*
X5459491Y-18393150D02*
X5488063Y-18393150D01*
X5488063Y-18393150D02*
X5507110Y-18402674D01*
X5507110Y-18402674D02*
X5516634Y-18421722D01*
X5516634Y-18421722D02*
X5516634Y-18526484D01*
X5516634Y-18421722D02*
X5526158Y-18402674D01*
X5526158Y-18402674D02*
X5545205Y-18393150D01*
X5545205Y-18393150D02*
X5573777Y-18393150D01*
X5573777Y-18393150D02*
X5592824Y-18402674D01*
X5592824Y-18402674D02*
X5602348Y-18421722D01*
X5602348Y-18421722D02*
X5602348Y-18526484D01*
X5697586Y-18526484D02*
X5697586Y-18393150D01*
X5697586Y-18412198D02*
X5707110Y-18402674D01*
X5707110Y-18402674D02*
X5726158Y-18393150D01*
X5726158Y-18393150D02*
X5754729Y-18393150D01*
X5754729Y-18393150D02*
X5773777Y-18402674D01*
X5773777Y-18402674D02*
X5783301Y-18421722D01*
X5783301Y-18421722D02*
X5783301Y-18526484D01*
X5783301Y-18421722D02*
X5792824Y-18402674D01*
X5792824Y-18402674D02*
X5811872Y-18393150D01*
X5811872Y-18393150D02*
X5840443Y-18393150D01*
X5840443Y-18393150D02*
X5859491Y-18402674D01*
X5859491Y-18402674D02*
X5869015Y-18421722D01*
X5869015Y-18421722D02*
X5869015Y-18526484D01*
X6259491Y-18316960D02*
X6088063Y-18574103D01*
X6516634Y-18326484D02*
X6535682Y-18326484D01*
X6535682Y-18326484D02*
X6554729Y-18336008D01*
X6554729Y-18336008D02*
X6564253Y-18345531D01*
X6564253Y-18345531D02*
X6573777Y-18364579D01*
X6573777Y-18364579D02*
X6583301Y-18402674D01*
X6583301Y-18402674D02*
X6583301Y-18450293D01*
X6583301Y-18450293D02*
X6573777Y-18488389D01*
X6573777Y-18488389D02*
X6564253Y-18507436D01*
X6564253Y-18507436D02*
X6554729Y-18516960D01*
X6554729Y-18516960D02*
X6535682Y-18526484D01*
X6535682Y-18526484D02*
X6516634Y-18526484D01*
X6516634Y-18526484D02*
X6497586Y-18516960D01*
X6497586Y-18516960D02*
X6488063Y-18507436D01*
X6488063Y-18507436D02*
X6478539Y-18488389D01*
X6478539Y-18488389D02*
X6469015Y-18450293D01*
X6469015Y-18450293D02*
X6469015Y-18402674D01*
X6469015Y-18402674D02*
X6478539Y-18364579D01*
X6478539Y-18364579D02*
X6488063Y-18345531D01*
X6488063Y-18345531D02*
X6497586Y-18336008D01*
X6497586Y-18336008D02*
X6516634Y-18326484D01*
X6669015Y-18507436D02*
X6678539Y-18516960D01*
X6678539Y-18516960D02*
X6669015Y-18526484D01*
X6669015Y-18526484D02*
X6659491Y-18516960D01*
X6659491Y-18516960D02*
X6669015Y-18507436D01*
X6669015Y-18507436D02*
X6669015Y-18526484D01*
X6802348Y-18326484D02*
X6821396Y-18326484D01*
X6821396Y-18326484D02*
X6840444Y-18336008D01*
X6840444Y-18336008D02*
X6849967Y-18345531D01*
X6849967Y-18345531D02*
X6859491Y-18364579D01*
X6859491Y-18364579D02*
X6869015Y-18402674D01*
X6869015Y-18402674D02*
X6869015Y-18450293D01*
X6869015Y-18450293D02*
X6859491Y-18488389D01*
X6859491Y-18488389D02*
X6849967Y-18507436D01*
X6849967Y-18507436D02*
X6840444Y-18516960D01*
X6840444Y-18516960D02*
X6821396Y-18526484D01*
X6821396Y-18526484D02*
X6802348Y-18526484D01*
X6802348Y-18526484D02*
X6783301Y-18516960D01*
X6783301Y-18516960D02*
X6773777Y-18507436D01*
X6773777Y-18507436D02*
X6764253Y-18488389D01*
X6764253Y-18488389D02*
X6754729Y-18450293D01*
X6754729Y-18450293D02*
X6754729Y-18402674D01*
X6754729Y-18402674D02*
X6764253Y-18364579D01*
X6764253Y-18364579D02*
X6773777Y-18345531D01*
X6773777Y-18345531D02*
X6783301Y-18336008D01*
X6783301Y-18336008D02*
X6802348Y-18326484D01*
X7049967Y-18326484D02*
X6954729Y-18326484D01*
X6954729Y-18326484D02*
X6945206Y-18421722D01*
X6945206Y-18421722D02*
X6954729Y-18412198D01*
X6954729Y-18412198D02*
X6973777Y-18402674D01*
X6973777Y-18402674D02*
X7021396Y-18402674D01*
X7021396Y-18402674D02*
X7040444Y-18412198D01*
X7040444Y-18412198D02*
X7049967Y-18421722D01*
X7049967Y-18421722D02*
X7059491Y-18440770D01*
X7059491Y-18440770D02*
X7059491Y-18488389D01*
X7059491Y-18488389D02*
X7049967Y-18507436D01*
X7049967Y-18507436D02*
X7040444Y-18516960D01*
X7040444Y-18516960D02*
X7021396Y-18526484D01*
X7021396Y-18526484D02*
X6973777Y-18526484D01*
X6973777Y-18526484D02*
X6954729Y-18516960D01*
X6954729Y-18516960D02*
X6945206Y-18507436D01*
X7154729Y-18526484D02*
X7192825Y-18526484D01*
X7192825Y-18526484D02*
X7211872Y-18516960D01*
X7211872Y-18516960D02*
X7221396Y-18507436D01*
X7221396Y-18507436D02*
X7240444Y-18478865D01*
X7240444Y-18478865D02*
X7249967Y-18440770D01*
X7249967Y-18440770D02*
X7249967Y-18364579D01*
X7249967Y-18364579D02*
X7240444Y-18345531D01*
X7240444Y-18345531D02*
X7230920Y-18336008D01*
X7230920Y-18336008D02*
X7211872Y-18326484D01*
X7211872Y-18326484D02*
X7173777Y-18326484D01*
X7173777Y-18326484D02*
X7154729Y-18336008D01*
X7154729Y-18336008D02*
X7145206Y-18345531D01*
X7145206Y-18345531D02*
X7135682Y-18364579D01*
X7135682Y-18364579D02*
X7135682Y-18412198D01*
X7135682Y-18412198D02*
X7145206Y-18431246D01*
X7145206Y-18431246D02*
X7154729Y-18440770D01*
X7154729Y-18440770D02*
X7173777Y-18450293D01*
X7173777Y-18450293D02*
X7211872Y-18450293D01*
X7211872Y-18450293D02*
X7230920Y-18440770D01*
X7230920Y-18440770D02*
X7240444Y-18431246D01*
X7240444Y-18431246D02*
X7249967Y-18412198D01*
X7440444Y-18526484D02*
X7326158Y-18526484D01*
X7383301Y-18526484D02*
X7383301Y-18326484D01*
X7383301Y-18326484D02*
X7364253Y-18355055D01*
X7364253Y-18355055D02*
X7345206Y-18374103D01*
X7345206Y-18374103D02*
X7326158Y-18383627D01*
X7516634Y-18326484D02*
X7516634Y-18364579D01*
X7592825Y-18326484D02*
X7592825Y-18364579D01*
X7888063Y-18602674D02*
X7878539Y-18593150D01*
X7878539Y-18593150D02*
X7859491Y-18564579D01*
X7859491Y-18564579D02*
X7849968Y-18545531D01*
X7849968Y-18545531D02*
X7840444Y-18516960D01*
X7840444Y-18516960D02*
X7830920Y-18469341D01*
X7830920Y-18469341D02*
X7830920Y-18431246D01*
X7830920Y-18431246D02*
X7840444Y-18383627D01*
X7840444Y-18383627D02*
X7849968Y-18355055D01*
X7849968Y-18355055D02*
X7859491Y-18336008D01*
X7859491Y-18336008D02*
X7878539Y-18307436D01*
X7878539Y-18307436D02*
X7888063Y-18297912D01*
X8002348Y-18326484D02*
X8021396Y-18326484D01*
X8021396Y-18326484D02*
X8040444Y-18336008D01*
X8040444Y-18336008D02*
X8049968Y-18345531D01*
X8049968Y-18345531D02*
X8059491Y-18364579D01*
X8059491Y-18364579D02*
X8069015Y-18402674D01*
X8069015Y-18402674D02*
X8069015Y-18450293D01*
X8069015Y-18450293D02*
X8059491Y-18488389D01*
X8059491Y-18488389D02*
X8049968Y-18507436D01*
X8049968Y-18507436D02*
X8040444Y-18516960D01*
X8040444Y-18516960D02*
X8021396Y-18526484D01*
X8021396Y-18526484D02*
X8002348Y-18526484D01*
X8002348Y-18526484D02*
X7983301Y-18516960D01*
X7983301Y-18516960D02*
X7973777Y-18507436D01*
X7973777Y-18507436D02*
X7964253Y-18488389D01*
X7964253Y-18488389D02*
X7954729Y-18450293D01*
X7954729Y-18450293D02*
X7954729Y-18402674D01*
X7954729Y-18402674D02*
X7964253Y-18364579D01*
X7964253Y-18364579D02*
X7973777Y-18345531D01*
X7973777Y-18345531D02*
X7983301Y-18336008D01*
X7983301Y-18336008D02*
X8002348Y-18326484D01*
X8307110Y-18526484D02*
X8307110Y-18326484D01*
X8392825Y-18526484D02*
X8392825Y-18421722D01*
X8392825Y-18421722D02*
X8383301Y-18402674D01*
X8383301Y-18402674D02*
X8364253Y-18393150D01*
X8364253Y-18393150D02*
X8335682Y-18393150D01*
X8335682Y-18393150D02*
X8316634Y-18402674D01*
X8316634Y-18402674D02*
X8307110Y-18412198D01*
X8516634Y-18526484D02*
X8497587Y-18516960D01*
X8497587Y-18516960D02*
X8488063Y-18507436D01*
X8488063Y-18507436D02*
X8478539Y-18488389D01*
X8478539Y-18488389D02*
X8478539Y-18431246D01*
X8478539Y-18431246D02*
X8488063Y-18412198D01*
X8488063Y-18412198D02*
X8497587Y-18402674D01*
X8497587Y-18402674D02*
X8516634Y-18393150D01*
X8516634Y-18393150D02*
X8545206Y-18393150D01*
X8545206Y-18393150D02*
X8564253Y-18402674D01*
X8564253Y-18402674D02*
X8573777Y-18412198D01*
X8573777Y-18412198D02*
X8583301Y-18431246D01*
X8583301Y-18431246D02*
X8583301Y-18488389D01*
X8583301Y-18488389D02*
X8573777Y-18507436D01*
X8573777Y-18507436D02*
X8564253Y-18516960D01*
X8564253Y-18516960D02*
X8545206Y-18526484D01*
X8545206Y-18526484D02*
X8516634Y-18526484D01*
X8697587Y-18526484D02*
X8678539Y-18516960D01*
X8678539Y-18516960D02*
X8669015Y-18497912D01*
X8669015Y-18497912D02*
X8669015Y-18326484D01*
X8849968Y-18516960D02*
X8830920Y-18526484D01*
X8830920Y-18526484D02*
X8792825Y-18526484D01*
X8792825Y-18526484D02*
X8773777Y-18516960D01*
X8773777Y-18516960D02*
X8764253Y-18497912D01*
X8764253Y-18497912D02*
X8764253Y-18421722D01*
X8764253Y-18421722D02*
X8773777Y-18402674D01*
X8773777Y-18402674D02*
X8792825Y-18393150D01*
X8792825Y-18393150D02*
X8830920Y-18393150D01*
X8830920Y-18393150D02*
X8849968Y-18402674D01*
X8849968Y-18402674D02*
X8859492Y-18421722D01*
X8859492Y-18421722D02*
X8859492Y-18440770D01*
X8859492Y-18440770D02*
X8764253Y-18459817D01*
X8935682Y-18516960D02*
X8954730Y-18526484D01*
X8954730Y-18526484D02*
X8992825Y-18526484D01*
X8992825Y-18526484D02*
X9011873Y-18516960D01*
X9011873Y-18516960D02*
X9021396Y-18497912D01*
X9021396Y-18497912D02*
X9021396Y-18488389D01*
X9021396Y-18488389D02*
X9011873Y-18469341D01*
X9011873Y-18469341D02*
X8992825Y-18459817D01*
X8992825Y-18459817D02*
X8964253Y-18459817D01*
X8964253Y-18459817D02*
X8945206Y-18450293D01*
X8945206Y-18450293D02*
X8935682Y-18431246D01*
X8935682Y-18431246D02*
X8935682Y-18421722D01*
X8935682Y-18421722D02*
X8945206Y-18402674D01*
X8945206Y-18402674D02*
X8964253Y-18393150D01*
X8964253Y-18393150D02*
X8992825Y-18393150D01*
X8992825Y-18393150D02*
X9011873Y-18402674D01*
X9259492Y-18450293D02*
X9411873Y-18450293D01*
X9335682Y-18526484D02*
X9335682Y-18374103D01*
X9754730Y-18326484D02*
X9659492Y-18326484D01*
X9659492Y-18326484D02*
X9649968Y-18421722D01*
X9649968Y-18421722D02*
X9659492Y-18412198D01*
X9659492Y-18412198D02*
X9678539Y-18402674D01*
X9678539Y-18402674D02*
X9726158Y-18402674D01*
X9726158Y-18402674D02*
X9745206Y-18412198D01*
X9745206Y-18412198D02*
X9754730Y-18421722D01*
X9754730Y-18421722D02*
X9764254Y-18440770D01*
X9764254Y-18440770D02*
X9764254Y-18488389D01*
X9764254Y-18488389D02*
X9754730Y-18507436D01*
X9754730Y-18507436D02*
X9745206Y-18516960D01*
X9745206Y-18516960D02*
X9726158Y-18526484D01*
X9726158Y-18526484D02*
X9678539Y-18526484D01*
X9678539Y-18526484D02*
X9659492Y-18516960D01*
X9659492Y-18516960D02*
X9649968Y-18507436D01*
X9935682Y-18326484D02*
X9897587Y-18326484D01*
X9897587Y-18326484D02*
X9878539Y-18336008D01*
X9878539Y-18336008D02*
X9869015Y-18345531D01*
X9869015Y-18345531D02*
X9849968Y-18374103D01*
X9849968Y-18374103D02*
X9840444Y-18412198D01*
X9840444Y-18412198D02*
X9840444Y-18488389D01*
X9840444Y-18488389D02*
X9849968Y-18507436D01*
X9849968Y-18507436D02*
X9859492Y-18516960D01*
X9859492Y-18516960D02*
X9878539Y-18526484D01*
X9878539Y-18526484D02*
X9916635Y-18526484D01*
X9916635Y-18526484D02*
X9935682Y-18516960D01*
X9935682Y-18516960D02*
X9945206Y-18507436D01*
X9945206Y-18507436D02*
X9954730Y-18488389D01*
X9954730Y-18488389D02*
X9954730Y-18440770D01*
X9954730Y-18440770D02*
X9945206Y-18421722D01*
X9945206Y-18421722D02*
X9935682Y-18412198D01*
X9935682Y-18412198D02*
X9916635Y-18402674D01*
X9916635Y-18402674D02*
X9878539Y-18402674D01*
X9878539Y-18402674D02*
X9859492Y-18412198D01*
X9859492Y-18412198D02*
X9849968Y-18421722D01*
X9849968Y-18421722D02*
X9840444Y-18440770D01*
X10183301Y-18516960D02*
X10202349Y-18526484D01*
X10202349Y-18526484D02*
X10240444Y-18526484D01*
X10240444Y-18526484D02*
X10259492Y-18516960D01*
X10259492Y-18516960D02*
X10269016Y-18497912D01*
X10269016Y-18497912D02*
X10269016Y-18488389D01*
X10269016Y-18488389D02*
X10259492Y-18469341D01*
X10259492Y-18469341D02*
X10240444Y-18459817D01*
X10240444Y-18459817D02*
X10211873Y-18459817D01*
X10211873Y-18459817D02*
X10192825Y-18450293D01*
X10192825Y-18450293D02*
X10183301Y-18431246D01*
X10183301Y-18431246D02*
X10183301Y-18421722D01*
X10183301Y-18421722D02*
X10192825Y-18402674D01*
X10192825Y-18402674D02*
X10211873Y-18393150D01*
X10211873Y-18393150D02*
X10240444Y-18393150D01*
X10240444Y-18393150D02*
X10259492Y-18402674D01*
X10383301Y-18526484D02*
X10364254Y-18516960D01*
X10364254Y-18516960D02*
X10354730Y-18497912D01*
X10354730Y-18497912D02*
X10354730Y-18326484D01*
X10488063Y-18526484D02*
X10469016Y-18516960D01*
X10469016Y-18516960D02*
X10459492Y-18507436D01*
X10459492Y-18507436D02*
X10449968Y-18488389D01*
X10449968Y-18488389D02*
X10449968Y-18431246D01*
X10449968Y-18431246D02*
X10459492Y-18412198D01*
X10459492Y-18412198D02*
X10469016Y-18402674D01*
X10469016Y-18402674D02*
X10488063Y-18393150D01*
X10488063Y-18393150D02*
X10516635Y-18393150D01*
X10516635Y-18393150D02*
X10535682Y-18402674D01*
X10535682Y-18402674D02*
X10545206Y-18412198D01*
X10545206Y-18412198D02*
X10554730Y-18431246D01*
X10554730Y-18431246D02*
X10554730Y-18488389D01*
X10554730Y-18488389D02*
X10545206Y-18507436D01*
X10545206Y-18507436D02*
X10535682Y-18516960D01*
X10535682Y-18516960D02*
X10516635Y-18526484D01*
X10516635Y-18526484D02*
X10488063Y-18526484D01*
X10611873Y-18393150D02*
X10688063Y-18393150D01*
X10640444Y-18326484D02*
X10640444Y-18497912D01*
X10640444Y-18497912D02*
X10649968Y-18516960D01*
X10649968Y-18516960D02*
X10669016Y-18526484D01*
X10669016Y-18526484D02*
X10688063Y-18526484D01*
X10745206Y-18516960D02*
X10764254Y-18526484D01*
X10764254Y-18526484D02*
X10802349Y-18526484D01*
X10802349Y-18526484D02*
X10821397Y-18516960D01*
X10821397Y-18516960D02*
X10830920Y-18497912D01*
X10830920Y-18497912D02*
X10830920Y-18488389D01*
X10830920Y-18488389D02*
X10821397Y-18469341D01*
X10821397Y-18469341D02*
X10802349Y-18459817D01*
X10802349Y-18459817D02*
X10773777Y-18459817D01*
X10773777Y-18459817D02*
X10754730Y-18450293D01*
X10754730Y-18450293D02*
X10745206Y-18431246D01*
X10745206Y-18431246D02*
X10745206Y-18421722D01*
X10745206Y-18421722D02*
X10754730Y-18402674D01*
X10754730Y-18402674D02*
X10773777Y-18393150D01*
X10773777Y-18393150D02*
X10802349Y-18393150D01*
X10802349Y-18393150D02*
X10821397Y-18402674D01*
X10897587Y-18602674D02*
X10907111Y-18593150D01*
X10907111Y-18593150D02*
X10926158Y-18564579D01*
X10926158Y-18564579D02*
X10935682Y-18545531D01*
X10935682Y-18545531D02*
X10945206Y-18516960D01*
X10945206Y-18516960D02*
X10954730Y-18469341D01*
X10954730Y-18469341D02*
X10954730Y-18431246D01*
X10954730Y-18431246D02*
X10945206Y-18383627D01*
X10945206Y-18383627D02*
X10935682Y-18355055D01*
X10935682Y-18355055D02*
X10926158Y-18336008D01*
X10926158Y-18336008D02*
X10907111Y-18307436D01*
X10907111Y-18307436D02*
X10897587Y-18297912D01*
M02*
