G04 #@! TF.GenerationSoftware,KiCad,Pcbnew,7.0.11*
G04 #@! TF.CreationDate,2024-06-12T14:29:07-04:00*
G04 #@! TF.ProjectId,StenoBoard,5374656e-6f42-46f6-9172-642e6b696361,rev?*
G04 #@! TF.SameCoordinates,Original*
G04 #@! TF.FileFunction,Legend,Top*
G04 #@! TF.FilePolarity,Positive*
%FSLAX46Y46*%
G04 Gerber Fmt 4.6, Leading zero omitted, Abs format (unit mm)*
G04 Created by KiCad (PCBNEW 7.0.11) date 2024-06-12 14:29:07*
%MOMM*%
%LPD*%
G01*
G04 APERTURE LIST*
G04 Aperture macros list*
%AMHorizOval*
0 Thick line with rounded ends*
0 $1 width*
0 $2 $3 position (X,Y) of the first rounded end (center of the circle)*
0 $4 $5 position (X,Y) of the second rounded end (center of the circle)*
0 Add line between two ends*
20,1,$1,$2,$3,$4,$5,0*
0 Add two circle primitives to create the rounded ends*
1,1,$1,$2,$3*
1,1,$1,$4,$5*%
G04 Aperture macros list end*
%ADD10C,0.381000*%
%ADD11C,0.150000*%
%ADD12HorizOval,2.500000X-0.604462X-0.948815X0.604462X0.948815X0*%
%ADD13HorizOval,2.500000X-0.019724X-0.289328X0.019724X0.289328X0*%
G04 APERTURE END LIST*
D10*
X247730000Y-93690000D02*
X249508000Y-93690000D01*
X247730000Y-95468000D02*
X247730000Y-93690000D01*
X247730000Y-106390000D02*
X247730000Y-104612000D01*
X249508000Y-106390000D02*
X247730000Y-106390000D01*
X258652000Y-93690000D02*
X260430000Y-93690000D01*
X260430000Y-93690000D02*
X260430000Y-95468000D01*
X260430000Y-104612000D02*
X260430000Y-106390000D01*
X260430000Y-106390000D02*
X258652000Y-106390000D01*
X51435000Y-112740000D02*
X53213000Y-112740000D01*
X51435000Y-114518000D02*
X51435000Y-112740000D01*
X51435000Y-125440000D02*
X51435000Y-123662000D01*
X53213000Y-125440000D02*
X51435000Y-125440000D01*
X62357000Y-112740000D02*
X64135000Y-112740000D01*
X64135000Y-112740000D02*
X64135000Y-114518000D01*
X64135000Y-123662000D02*
X64135000Y-125440000D01*
X64135000Y-125440000D02*
X62357000Y-125440000D01*
X223600000Y-157190000D02*
X225378000Y-157190000D01*
X223600000Y-158968000D02*
X223600000Y-157190000D01*
X223600000Y-169890000D02*
X223600000Y-168112000D01*
X225378000Y-169890000D02*
X223600000Y-169890000D01*
X234522000Y-157190000D02*
X236300000Y-157190000D01*
X236300000Y-157190000D02*
X236300000Y-158968000D01*
X236300000Y-168112000D02*
X236300000Y-169890000D01*
X236300000Y-169890000D02*
X234522000Y-169890000D01*
X344250000Y-112740000D02*
X346028000Y-112740000D01*
X344250000Y-114518000D02*
X344250000Y-112740000D01*
X344250000Y-125440000D02*
X344250000Y-123662000D01*
X346028000Y-125440000D02*
X344250000Y-125440000D01*
X355172000Y-112740000D02*
X356950000Y-112740000D01*
X356950000Y-112740000D02*
X356950000Y-114518000D01*
X356950000Y-123662000D02*
X356950000Y-125440000D01*
X356950000Y-125440000D02*
X355172000Y-125440000D01*
X295990000Y-93690000D02*
X297768000Y-93690000D01*
X295990000Y-95468000D02*
X295990000Y-93690000D01*
X295990000Y-106390000D02*
X295990000Y-104612000D01*
X297768000Y-106390000D02*
X295990000Y-106390000D01*
X306912000Y-93690000D02*
X308690000Y-93690000D01*
X308690000Y-93690000D02*
X308690000Y-95468000D01*
X308690000Y-104612000D02*
X308690000Y-106390000D01*
X308690000Y-106390000D02*
X306912000Y-106390000D01*
X247730000Y-157190000D02*
X249508000Y-157190000D01*
X247730000Y-158968000D02*
X247730000Y-157190000D01*
X247730000Y-169890000D02*
X247730000Y-168112000D01*
X249508000Y-169890000D02*
X247730000Y-169890000D01*
X258652000Y-157190000D02*
X260430000Y-157190000D01*
X260430000Y-157190000D02*
X260430000Y-158968000D01*
X260430000Y-168112000D02*
X260430000Y-169890000D01*
X260430000Y-169890000D02*
X258652000Y-169890000D01*
X320120000Y-93690000D02*
X321898000Y-93690000D01*
X320120000Y-95468000D02*
X320120000Y-93690000D01*
X320120000Y-106390000D02*
X320120000Y-104612000D01*
X321898000Y-106390000D02*
X320120000Y-106390000D01*
X331042000Y-93690000D02*
X332820000Y-93690000D01*
X332820000Y-93690000D02*
X332820000Y-95468000D01*
X332820000Y-104612000D02*
X332820000Y-106390000D01*
X332820000Y-106390000D02*
X331042000Y-106390000D01*
X123825000Y-93690000D02*
X125603000Y-93690000D01*
X123825000Y-95468000D02*
X123825000Y-93690000D01*
X123825000Y-106390000D02*
X123825000Y-104612000D01*
X125603000Y-106390000D02*
X123825000Y-106390000D01*
X134747000Y-93690000D02*
X136525000Y-93690000D01*
X136525000Y-93690000D02*
X136525000Y-95468000D01*
X136525000Y-104612000D02*
X136525000Y-106390000D01*
X136525000Y-106390000D02*
X134747000Y-106390000D01*
X247730000Y-112740000D02*
X249508000Y-112740000D01*
X247730000Y-114518000D02*
X247730000Y-112740000D01*
X247730000Y-125440000D02*
X247730000Y-123662000D01*
X249508000Y-125440000D02*
X247730000Y-125440000D01*
X258652000Y-112740000D02*
X260430000Y-112740000D01*
X260430000Y-112740000D02*
X260430000Y-114518000D01*
X260430000Y-123662000D02*
X260430000Y-125440000D01*
X260430000Y-125440000D02*
X258652000Y-125440000D01*
X99695000Y-112740000D02*
X101473000Y-112740000D01*
X99695000Y-114518000D02*
X99695000Y-112740000D01*
X99695000Y-125440000D02*
X99695000Y-123662000D01*
X101473000Y-125440000D02*
X99695000Y-125440000D01*
X110617000Y-112740000D02*
X112395000Y-112740000D01*
X112395000Y-112740000D02*
X112395000Y-114518000D01*
X112395000Y-123662000D02*
X112395000Y-125440000D01*
X112395000Y-125440000D02*
X110617000Y-125440000D01*
X123825000Y-157190000D02*
X125603000Y-157190000D01*
X123825000Y-158968000D02*
X123825000Y-157190000D01*
X123825000Y-169890000D02*
X123825000Y-168112000D01*
X125603000Y-169890000D02*
X123825000Y-169890000D01*
X134747000Y-157190000D02*
X136525000Y-157190000D01*
X136525000Y-157190000D02*
X136525000Y-158968000D01*
X136525000Y-168112000D02*
X136525000Y-169890000D01*
X136525000Y-169890000D02*
X134747000Y-169890000D01*
X99695000Y-93690000D02*
X101473000Y-93690000D01*
X99695000Y-95468000D02*
X99695000Y-93690000D01*
X99695000Y-106390000D02*
X99695000Y-104612000D01*
X101473000Y-106390000D02*
X99695000Y-106390000D01*
X110617000Y-93690000D02*
X112395000Y-93690000D01*
X112395000Y-93690000D02*
X112395000Y-95468000D01*
X112395000Y-104612000D02*
X112395000Y-106390000D01*
X112395000Y-106390000D02*
X110617000Y-106390000D01*
X271860000Y-112740000D02*
X273638000Y-112740000D01*
X271860000Y-114518000D02*
X271860000Y-112740000D01*
X271860000Y-125440000D02*
X271860000Y-123662000D01*
X273638000Y-125440000D02*
X271860000Y-125440000D01*
X282782000Y-112740000D02*
X284560000Y-112740000D01*
X284560000Y-112740000D02*
X284560000Y-114518000D01*
X284560000Y-123662000D02*
X284560000Y-125440000D01*
X284560000Y-125440000D02*
X282782000Y-125440000D01*
X51435000Y-93690000D02*
X53213000Y-93690000D01*
X51435000Y-95468000D02*
X51435000Y-93690000D01*
X51435000Y-106390000D02*
X51435000Y-104612000D01*
X53213000Y-106390000D02*
X51435000Y-106390000D01*
X62357000Y-93690000D02*
X64135000Y-93690000D01*
X64135000Y-93690000D02*
X64135000Y-95468000D01*
X64135000Y-104612000D02*
X64135000Y-106390000D01*
X64135000Y-106390000D02*
X62357000Y-106390000D01*
X223600000Y-112740000D02*
X225378000Y-112740000D01*
X223600000Y-114518000D02*
X223600000Y-112740000D01*
X223600000Y-125440000D02*
X223600000Y-123662000D01*
X225378000Y-125440000D02*
X223600000Y-125440000D01*
X234522000Y-112740000D02*
X236300000Y-112740000D01*
X236300000Y-112740000D02*
X236300000Y-114518000D01*
X236300000Y-123662000D02*
X236300000Y-125440000D01*
X236300000Y-125440000D02*
X234522000Y-125440000D01*
X320120000Y-112740000D02*
X321898000Y-112740000D01*
X320120000Y-114518000D02*
X320120000Y-112740000D01*
X320120000Y-125440000D02*
X320120000Y-123662000D01*
X321898000Y-125440000D02*
X320120000Y-125440000D01*
X331042000Y-112740000D02*
X332820000Y-112740000D01*
X332820000Y-112740000D02*
X332820000Y-114518000D01*
X332820000Y-123662000D02*
X332820000Y-125440000D01*
X332820000Y-125440000D02*
X331042000Y-125440000D01*
D11*
X195859400Y-86233000D02*
X195859400Y-88773000D01*
X188239400Y-86233000D02*
X195859400Y-86233000D01*
X200939400Y-88773000D02*
X200939400Y-119253000D01*
X195859400Y-88773000D02*
X200939400Y-88773000D01*
X188239400Y-88773000D02*
X188239400Y-86233000D01*
X183159400Y-88773000D02*
X188239400Y-88773000D01*
X183159400Y-88773000D02*
X183159400Y-119253000D01*
X200939400Y-119253000D02*
X183159400Y-119253000D01*
G36*
X173315243Y-137229283D02*
G01*
X173320989Y-137304610D01*
X173311438Y-137321662D01*
X173289532Y-137307287D01*
X173286124Y-137258403D01*
X173297894Y-137206974D01*
X173315243Y-137229283D01*
G37*
G36*
X173313334Y-137483987D02*
G01*
X173315719Y-137492274D01*
X173322775Y-137597262D01*
X173313933Y-137636866D01*
X173298111Y-137638468D01*
X173291648Y-137563017D01*
X173291715Y-137551603D01*
X173298664Y-137476851D01*
X173313334Y-137483987D01*
G37*
G36*
X173365101Y-138070387D02*
G01*
X173373030Y-138212926D01*
X173364444Y-138311374D01*
X173353155Y-138330768D01*
X173345879Y-138267620D01*
X173344301Y-138178169D01*
X173347908Y-138068812D01*
X173356544Y-138036826D01*
X173365101Y-138070387D01*
G37*
G36*
X192276048Y-119828932D02*
G01*
X192416611Y-119849016D01*
X192570512Y-119891147D01*
X192763275Y-119962131D01*
X192986130Y-120054213D01*
X193417352Y-120256243D01*
X193775184Y-120471848D01*
X194076266Y-120717150D01*
X194337239Y-121008270D01*
X194574744Y-121361327D01*
X194805422Y-121792444D01*
X194827680Y-121838242D01*
X195114431Y-122493654D01*
X195348719Y-123167625D01*
X195533339Y-123873439D01*
X195671087Y-124624379D01*
X195764757Y-125433730D01*
X195817145Y-126314775D01*
X195824826Y-126577386D01*
X195829437Y-127335512D01*
X195806583Y-128088217D01*
X195754620Y-128852052D01*
X195671902Y-129643569D01*
X195556787Y-130479323D01*
X195407628Y-131375865D01*
X195280407Y-132057106D01*
X195134299Y-132754517D01*
X194957952Y-133504685D01*
X194759761Y-134275836D01*
X194548121Y-135036198D01*
X194331426Y-135753997D01*
X194185300Y-136202077D01*
X194022426Y-136684051D01*
X194408766Y-137479307D01*
X194561380Y-137792180D01*
X194744251Y-138164957D01*
X194952357Y-138587551D01*
X195180677Y-139049876D01*
X195424189Y-139541847D01*
X195677873Y-140053376D01*
X195936707Y-140574377D01*
X196195669Y-141094765D01*
X196449739Y-141604454D01*
X196693894Y-142093357D01*
X196923114Y-142551388D01*
X197132377Y-142968461D01*
X197316662Y-143334490D01*
X197470948Y-143639388D01*
X197590212Y-143873070D01*
X197636077Y-143961850D01*
X198029132Y-144717508D01*
X198401960Y-145433914D01*
X198750115Y-146102529D01*
X199069148Y-146714818D01*
X199354613Y-147262242D01*
X199602062Y-147736264D01*
X199694954Y-147914032D01*
X200026133Y-148546482D01*
X200338170Y-149140199D01*
X200628210Y-149689841D01*
X200893398Y-150190067D01*
X201130881Y-150635538D01*
X201337804Y-151020913D01*
X201511311Y-151340851D01*
X201648550Y-151590011D01*
X201746664Y-151763053D01*
X201794435Y-151842115D01*
X201855473Y-151947159D01*
X201946867Y-152117843D01*
X202057484Y-152332800D01*
X202176187Y-152570661D01*
X202208829Y-152637372D01*
X202319757Y-152861263D01*
X202417863Y-153052087D01*
X202494707Y-153193963D01*
X202541850Y-153271011D01*
X202550456Y-153280103D01*
X202566032Y-153326736D01*
X202559661Y-153340350D01*
X202568560Y-153381387D01*
X202586303Y-153384430D01*
X202619148Y-153412458D01*
X202612946Y-153428511D01*
X202613163Y-153482051D01*
X202622884Y-153488758D01*
X202658726Y-153537360D01*
X202721354Y-153652408D01*
X202799076Y-153811964D01*
X202824121Y-153866404D01*
X202906365Y-154038468D01*
X202979711Y-154175760D01*
X203031344Y-154254752D01*
X203040277Y-154263294D01*
X203063558Y-154295394D01*
X203050326Y-154299442D01*
X203039340Y-154328983D01*
X203061957Y-154364861D01*
X203092532Y-154435141D01*
X203083924Y-154461256D01*
X203089741Y-154490123D01*
X203111286Y-154492969D01*
X203149061Y-154519070D01*
X203143117Y-154537050D01*
X203151364Y-154589982D01*
X203166513Y-154598011D01*
X203209873Y-154653734D01*
X203225267Y-154722621D01*
X203246067Y-154807045D01*
X203271323Y-154830351D01*
X203302286Y-154862951D01*
X203301729Y-154866499D01*
X203316636Y-154925741D01*
X203362965Y-155045444D01*
X203427147Y-155191831D01*
X203522013Y-155405322D01*
X203632616Y-155665954D01*
X203754069Y-155961015D01*
X203881487Y-156277795D01*
X204009982Y-156603583D01*
X204134667Y-156925668D01*
X204250657Y-157231340D01*
X204353064Y-157507886D01*
X204437002Y-157742597D01*
X204497584Y-157922761D01*
X204529924Y-158035667D01*
X204532956Y-158068213D01*
X204545296Y-158104822D01*
X204564707Y-158107770D01*
X204599359Y-158142713D01*
X204593162Y-158180066D01*
X204592161Y-158242128D01*
X204612104Y-158252362D01*
X204653146Y-158280234D01*
X204653082Y-158288510D01*
X204659106Y-158360806D01*
X204681444Y-158439445D01*
X204682888Y-158445151D01*
X204702461Y-158502010D01*
X204704649Y-158505398D01*
X204722486Y-158556182D01*
X204730901Y-158589743D01*
X204753654Y-158664855D01*
X204800979Y-158806403D01*
X204864682Y-158990168D01*
X204902077Y-159095816D01*
X204971146Y-159295542D01*
X205027438Y-159469480D01*
X205062780Y-159591839D01*
X205070093Y-159625986D01*
X205088702Y-159716362D01*
X205126147Y-159870192D01*
X205175208Y-160058125D01*
X205188704Y-160107960D01*
X205239991Y-160298573D01*
X205282409Y-160461142D01*
X205308511Y-160566986D01*
X205311718Y-160581734D01*
X205341958Y-160704571D01*
X205360396Y-160767272D01*
X205393619Y-160900975D01*
X205405215Y-160968261D01*
X205447787Y-161218348D01*
X205500829Y-161431231D01*
X205523515Y-161498249D01*
X205549473Y-161593790D01*
X205546014Y-161638635D01*
X205545253Y-161694481D01*
X205574241Y-161794084D01*
X205619488Y-161945294D01*
X205646214Y-162077903D01*
X205693937Y-162351475D01*
X205739474Y-162533727D01*
X205763997Y-162635782D01*
X205790308Y-162773885D01*
X205791820Y-162782912D01*
X205827876Y-162997775D01*
X205857332Y-163164480D01*
X205888693Y-163330071D01*
X205913787Y-163457675D01*
X205948099Y-163642659D01*
X205976935Y-163818360D01*
X205987136Y-163891451D01*
X206007519Y-164050941D01*
X206031984Y-164235049D01*
X206037706Y-164277030D01*
X206059992Y-164440067D01*
X206079335Y-164582567D01*
X206083621Y-164614411D01*
X206141915Y-165185383D01*
X206171446Y-165794908D01*
X206173067Y-166420440D01*
X206147632Y-167039432D01*
X206095994Y-167629337D01*
X206019007Y-168167608D01*
X205933921Y-168569094D01*
X205893019Y-168734222D01*
X205860468Y-168872573D01*
X205848020Y-168930574D01*
X205819574Y-169048569D01*
X205804631Y-169096764D01*
X205779973Y-169171275D01*
X205733714Y-169314555D01*
X205673299Y-169503457D01*
X205627899Y-169646253D01*
X205498165Y-170023403D01*
X205354524Y-170371288D01*
X205185240Y-170712871D01*
X204978577Y-171071113D01*
X204722798Y-171468976D01*
X204614047Y-171629822D01*
X204500216Y-171794984D01*
X204401780Y-171932124D01*
X204306205Y-172055616D01*
X204200953Y-172179834D01*
X204073491Y-172319155D01*
X203911283Y-172487952D01*
X203701793Y-172700601D01*
X203526152Y-172877369D01*
X203222406Y-173179505D01*
X202968045Y-173422667D01*
X202746856Y-173618515D01*
X202542628Y-173778707D01*
X202339149Y-173914902D01*
X202120205Y-174038760D01*
X201869586Y-174161940D01*
X201571078Y-174296100D01*
X201525962Y-174315803D01*
X200917933Y-174544211D01*
X200234660Y-174734050D01*
X199490812Y-174881506D01*
X199167327Y-174929416D01*
X199027726Y-174943542D01*
X198828591Y-174957655D01*
X198587682Y-174971131D01*
X198322759Y-174983348D01*
X198051585Y-174993681D01*
X197791920Y-175001506D01*
X197561525Y-175006201D01*
X197378161Y-175007141D01*
X197259589Y-175003702D01*
X197223611Y-174997673D01*
X197174059Y-174991794D01*
X197046427Y-174982645D01*
X196858930Y-174971386D01*
X196629781Y-174959176D01*
X196579992Y-174956694D01*
X196335644Y-174943790D01*
X196120491Y-174930826D01*
X195955881Y-174919201D01*
X195863166Y-174910314D01*
X195857032Y-174909349D01*
X195751274Y-174890235D01*
X195605307Y-174863606D01*
X195573590Y-174857793D01*
X195415802Y-174829112D01*
X195277656Y-174804421D01*
X195260307Y-174801376D01*
X195120331Y-174771018D01*
X194916465Y-174719628D01*
X194676800Y-174655023D01*
X194429424Y-174585016D01*
X194202425Y-174517423D01*
X194023892Y-174460059D01*
X193986938Y-174447084D01*
X193838524Y-174395380D01*
X193629118Y-174324932D01*
X193389636Y-174246054D01*
X193207887Y-174187246D01*
X192936054Y-174094305D01*
X192642817Y-173984790D01*
X192372391Y-173875580D01*
X192243940Y-173819266D01*
X191996670Y-173704227D01*
X191727486Y-173575790D01*
X191450331Y-173440968D01*
X191179148Y-173306771D01*
X190927880Y-173180209D01*
X190710468Y-173068293D01*
X190540855Y-172978034D01*
X190432984Y-172916441D01*
X190400408Y-172892305D01*
X190345612Y-172856241D01*
X190342736Y-172856157D01*
X190291834Y-172832774D01*
X190176154Y-172769514D01*
X190013203Y-172676711D01*
X189820490Y-172564698D01*
X189615520Y-172443809D01*
X189415802Y-172324377D01*
X189238843Y-172216736D01*
X189102150Y-172131219D01*
X189023231Y-172078160D01*
X189018751Y-172074687D01*
X188964860Y-172034919D01*
X188846604Y-171949572D01*
X188678224Y-171828862D01*
X188473959Y-171683006D01*
X188319890Y-171573295D01*
X187444510Y-170918028D01*
X186559583Y-170193667D01*
X185688983Y-169421535D01*
X184856582Y-168622953D01*
X184086255Y-167819244D01*
X183956459Y-167676154D01*
X183787999Y-167488889D01*
X183635839Y-167319968D01*
X183515220Y-167186292D01*
X183441378Y-167104764D01*
X183435012Y-167097786D01*
X183341936Y-166990742D01*
X183202847Y-166824203D01*
X183031028Y-166614677D01*
X182839760Y-166378671D01*
X182642324Y-166132692D01*
X182452002Y-165893246D01*
X182282076Y-165676841D01*
X182145827Y-165499983D01*
X182096128Y-165433766D01*
X181103329Y-164018209D01*
X180163872Y-162525208D01*
X179277313Y-160953929D01*
X178443209Y-159303532D01*
X177661117Y-157573183D01*
X176930594Y-155762044D01*
X176815048Y-155455555D01*
X176497409Y-154604841D01*
X175962254Y-154817191D01*
X175672601Y-154927522D01*
X175304042Y-155060619D01*
X174870164Y-155212094D01*
X174384552Y-155377554D01*
X173860792Y-155552610D01*
X173312468Y-155732871D01*
X172753166Y-155913946D01*
X172196471Y-156091445D01*
X171655969Y-156260977D01*
X171145245Y-156418151D01*
X170677884Y-156558578D01*
X170267472Y-156677866D01*
X169927593Y-156771625D01*
X169860307Y-156789251D01*
X169575753Y-156856631D01*
X169281186Y-156915859D01*
X169010608Y-156960686D01*
X168798024Y-156984859D01*
X168795311Y-156985041D01*
X168593856Y-156996846D01*
X168465689Y-156996953D01*
X168388008Y-156981329D01*
X168338012Y-156945937D01*
X168300352Y-156897442D01*
X168254044Y-156822361D01*
X168262292Y-156776065D01*
X168339107Y-156731839D01*
X168401401Y-156704803D01*
X168535650Y-156652742D01*
X168725056Y-156585755D01*
X168932527Y-156516881D01*
X168968656Y-156505376D01*
X169669094Y-156282881D01*
X170369043Y-156058481D01*
X171060652Y-155834807D01*
X171736068Y-155614487D01*
X172387442Y-155400151D01*
X173006920Y-155194427D01*
X173586652Y-154999945D01*
X174118786Y-154819334D01*
X174595471Y-154655222D01*
X175008855Y-154510240D01*
X175216326Y-154435538D01*
X176938480Y-154435538D01*
X176942567Y-154494984D01*
X176984908Y-154631934D01*
X177061468Y-154837269D01*
X177168215Y-155101870D01*
X177301116Y-155416616D01*
X177456136Y-155772389D01*
X177629244Y-156160067D01*
X177816405Y-156570532D01*
X178013587Y-156994664D01*
X178216757Y-157423343D01*
X178421880Y-157847450D01*
X178624924Y-158257864D01*
X178658462Y-158324658D01*
X179095049Y-159163675D01*
X179560786Y-160005924D01*
X180047080Y-160837828D01*
X180545337Y-161645809D01*
X181046963Y-162416287D01*
X181543365Y-163135685D01*
X182025949Y-163790425D01*
X182471412Y-164349326D01*
X182600217Y-164505276D01*
X182743772Y-164681328D01*
X182806461Y-164759003D01*
X182979497Y-164964754D01*
X183209736Y-165224081D01*
X183484645Y-165524011D01*
X183791692Y-165851569D01*
X184118345Y-166193782D01*
X184452073Y-166537675D01*
X184780342Y-166870274D01*
X185090621Y-167178606D01*
X185370377Y-167449696D01*
X185607079Y-167670571D01*
X185692915Y-167747239D01*
X186750691Y-168630046D01*
X187825220Y-169435277D01*
X188942386Y-170181315D01*
X190054994Y-170845309D01*
X190183968Y-170909723D01*
X190356428Y-170984420D01*
X190551020Y-171061601D01*
X190746387Y-171133467D01*
X190921173Y-171192220D01*
X191054023Y-171230059D01*
X191123582Y-171239188D01*
X191127814Y-171237100D01*
X191183646Y-171236353D01*
X191283244Y-171265347D01*
X191426702Y-171308450D01*
X191587890Y-171342140D01*
X191591162Y-171342645D01*
X191746298Y-171367144D01*
X191881766Y-171389787D01*
X191886493Y-171390618D01*
X192036306Y-171416504D01*
X192127480Y-171431842D01*
X192217822Y-171449781D01*
X192247973Y-171460559D01*
X192291601Y-171471974D01*
X192424241Y-171488453D01*
X192648531Y-171510290D01*
X192872196Y-171529828D01*
X193042339Y-171547334D01*
X193171254Y-171566410D01*
X193232025Y-171583042D01*
X193232672Y-171583613D01*
X193267889Y-171573579D01*
X193275279Y-171557541D01*
X193322121Y-171529347D01*
X193343444Y-171537548D01*
X193405351Y-171548616D01*
X193539897Y-171558156D01*
X193727369Y-171565931D01*
X193948052Y-171571700D01*
X194182232Y-171575225D01*
X194410195Y-171576267D01*
X194612227Y-171574588D01*
X194768612Y-171569947D01*
X194859638Y-171562107D01*
X194874720Y-171556105D01*
X194918303Y-171542754D01*
X195030737Y-171534946D01*
X195139806Y-171534052D01*
X195284957Y-171528917D01*
X195381245Y-171512185D01*
X195404899Y-171495059D01*
X195434805Y-171474171D01*
X195452029Y-171481873D01*
X195521939Y-171485759D01*
X195648825Y-171463687D01*
X195737022Y-171440362D01*
X195876634Y-171404944D01*
X195974753Y-171391272D01*
X196001097Y-171395935D01*
X196060992Y-171401159D01*
X196113731Y-171384813D01*
X196210809Y-171345600D01*
X196248353Y-171332307D01*
X196472294Y-171260608D01*
X196687310Y-171189680D01*
X196868876Y-171127793D01*
X196992465Y-171083212D01*
X197019510Y-171072363D01*
X197278412Y-170962056D01*
X197459197Y-170887760D01*
X197571523Y-170845646D01*
X197625049Y-170831884D01*
X197625983Y-170831869D01*
X197686216Y-170809062D01*
X197800806Y-170750050D01*
X197909040Y-170688527D01*
X198037966Y-170617156D01*
X198126113Y-170577245D01*
X198152148Y-170575504D01*
X198181756Y-170571316D01*
X198240404Y-170525951D01*
X198318363Y-170476747D01*
X198360898Y-170478316D01*
X198390553Y-170473730D01*
X198393135Y-170454323D01*
X198424015Y-170401248D01*
X198439191Y-170398093D01*
X198504236Y-170372963D01*
X198613791Y-170309700D01*
X198663584Y-170277071D01*
X198775018Y-170208988D01*
X198850020Y-170177137D01*
X198864252Y-170178381D01*
X198910944Y-170167620D01*
X198957027Y-170130269D01*
X199032586Y-170084560D01*
X199071783Y-170087211D01*
X199113029Y-170078460D01*
X199116095Y-170060711D01*
X199145454Y-170029281D01*
X199164292Y-170036613D01*
X199208907Y-170037475D01*
X199212489Y-170023503D01*
X199251021Y-169973893D01*
X199343809Y-169914339D01*
X199345032Y-169913720D01*
X199463925Y-169846292D01*
X199615883Y-169749961D01*
X199780962Y-169638755D01*
X199939219Y-169526701D01*
X200070711Y-169427830D01*
X200155494Y-169356167D01*
X200176436Y-169328904D01*
X200215599Y-169293958D01*
X200248732Y-169289554D01*
X200311953Y-169250751D01*
X200321028Y-169214413D01*
X200340523Y-169161796D01*
X200360628Y-169163747D01*
X200415403Y-169149655D01*
X200487611Y-169085244D01*
X200546025Y-169003404D01*
X200562015Y-168951621D01*
X200601061Y-168909348D01*
X200634311Y-168903975D01*
X200698470Y-168879267D01*
X200706607Y-168858261D01*
X200736718Y-168795621D01*
X200810807Y-168700532D01*
X200827100Y-168682532D01*
X200907228Y-168578724D01*
X200946724Y-168493529D01*
X200947594Y-168484415D01*
X200972881Y-168440181D01*
X200995791Y-168446100D01*
X201037053Y-168435174D01*
X201043988Y-168400747D01*
X201075178Y-168309550D01*
X201128334Y-168236455D01*
X201277017Y-168067334D01*
X201351306Y-167952086D01*
X201355881Y-167889581D01*
X201368111Y-167850191D01*
X201402624Y-167843633D01*
X201468332Y-167806299D01*
X201477764Y-167771337D01*
X201503790Y-167707198D01*
X201525962Y-167699041D01*
X201565121Y-167658674D01*
X201574159Y-167602647D01*
X201592011Y-167524292D01*
X201616735Y-167506252D01*
X201659471Y-167466385D01*
X201701663Y-167376569D01*
X201724381Y-167281476D01*
X201723964Y-167253216D01*
X201755192Y-167218194D01*
X201766949Y-167217068D01*
X201809708Y-167178030D01*
X201815146Y-167144772D01*
X201841171Y-167080632D01*
X201863343Y-167072476D01*
X201903858Y-167032567D01*
X201911541Y-166985721D01*
X201942056Y-166878808D01*
X201969377Y-166841129D01*
X201996998Y-166792487D01*
X201981427Y-166782554D01*
X201969980Y-166762833D01*
X201989754Y-166746406D01*
X202019909Y-166691121D01*
X202069093Y-166563024D01*
X202131054Y-166382322D01*
X202199543Y-166169225D01*
X202268309Y-165943940D01*
X202331099Y-165726675D01*
X202381665Y-165537639D01*
X202413755Y-165397041D01*
X202420704Y-165353194D01*
X202440214Y-165224994D01*
X202462246Y-165112207D01*
X202519009Y-164811120D01*
X202571984Y-164440219D01*
X202607867Y-164132438D01*
X202629202Y-163938984D01*
X202650712Y-163749175D01*
X202659403Y-163674563D01*
X202672076Y-163502934D01*
X202680169Y-163256477D01*
X202683897Y-162956644D01*
X202683471Y-162624881D01*
X202679104Y-162282639D01*
X202671010Y-161951367D01*
X202659402Y-161652512D01*
X202644491Y-161407525D01*
X202635965Y-161312893D01*
X202596005Y-160943963D01*
X202558584Y-160619527D01*
X202525113Y-160350539D01*
X202496998Y-160147950D01*
X202475648Y-160022712D01*
X202465493Y-159986954D01*
X202444299Y-159921495D01*
X202419625Y-159806006D01*
X202418246Y-159798272D01*
X202393670Y-159677528D01*
X202351429Y-159488270D01*
X202297277Y-159254560D01*
X202236973Y-159000463D01*
X202176272Y-158750042D01*
X202120932Y-158527363D01*
X202076708Y-158356488D01*
X202054194Y-158276461D01*
X202026217Y-158177994D01*
X201980107Y-158007619D01*
X201921595Y-157786826D01*
X201856408Y-157537100D01*
X201835724Y-157457106D01*
X201682191Y-156881773D01*
X201520064Y-156315819D01*
X201343073Y-155739415D01*
X201144948Y-155132729D01*
X200919418Y-154475929D01*
X200685169Y-153818206D01*
X200576954Y-153517497D01*
X200469531Y-153217148D01*
X200371456Y-152941214D01*
X200291285Y-152713749D01*
X200247968Y-152589174D01*
X200166973Y-152367702D01*
X200050825Y-152070168D01*
X199904476Y-151708166D01*
X199732876Y-151293288D01*
X199540978Y-150837129D01*
X199333734Y-150351281D01*
X199116095Y-149847339D01*
X198893014Y-149336896D01*
X198669441Y-148831545D01*
X198450330Y-148342879D01*
X198240631Y-147882493D01*
X198199660Y-147793539D01*
X197851529Y-147037940D01*
X197499041Y-146270425D01*
X197145781Y-145498923D01*
X196795334Y-144731361D01*
X196451284Y-143975666D01*
X196117216Y-143239767D01*
X195796715Y-142531590D01*
X195493365Y-141859064D01*
X195210752Y-141230117D01*
X194952461Y-140652675D01*
X194722075Y-140134666D01*
X194523180Y-139684019D01*
X194359360Y-139308661D01*
X194287622Y-139142115D01*
X194142471Y-138804359D01*
X194008588Y-138495322D01*
X193890881Y-138226133D01*
X193794255Y-138007919D01*
X193723616Y-137851808D01*
X193683868Y-137768926D01*
X193677790Y-137758845D01*
X193649686Y-137789775D01*
X193591422Y-137896393D01*
X193509547Y-138065254D01*
X193410609Y-138282914D01*
X193313884Y-138505903D01*
X192604206Y-140053878D01*
X191812511Y-141551737D01*
X190940293Y-142997506D01*
X189989048Y-144389210D01*
X188960270Y-145724878D01*
X187855454Y-147002533D01*
X186676095Y-148220203D01*
X185423687Y-149375914D01*
X184488201Y-150159990D01*
X183803643Y-150692531D01*
X183110422Y-151193074D01*
X182396836Y-151668394D01*
X181651184Y-152125268D01*
X180861766Y-152570471D01*
X180016879Y-153010780D01*
X179104823Y-153452970D01*
X178113897Y-153903817D01*
X177740573Y-154067388D01*
X177487547Y-154178337D01*
X177265789Y-154277646D01*
X177090287Y-154358435D01*
X176976026Y-154413827D01*
X176938480Y-154435538D01*
X175216326Y-154435538D01*
X175351087Y-154387016D01*
X175614314Y-154288179D01*
X175740383Y-154237820D01*
X175837914Y-154198116D01*
X175884975Y-154180198D01*
X175940280Y-154158487D01*
X176051555Y-154112589D01*
X176107906Y-154088984D01*
X176306738Y-154005336D01*
X176162169Y-153562341D01*
X175526460Y-151473889D01*
X174964953Y-149334426D01*
X174481116Y-147158425D01*
X174078414Y-144960359D01*
X174030136Y-144660711D01*
X173967148Y-144246446D01*
X173902360Y-143789486D01*
X173836865Y-143300042D01*
X173771754Y-142788324D01*
X173708119Y-142264542D01*
X173647049Y-141738908D01*
X173589637Y-141221630D01*
X173536975Y-140722919D01*
X173490152Y-140252987D01*
X173450262Y-139822041D01*
X173418394Y-139440294D01*
X173395640Y-139117955D01*
X173383092Y-138865235D01*
X173381840Y-138692344D01*
X173386206Y-138636043D01*
X173394873Y-138646175D01*
X173409580Y-138740726D01*
X173429028Y-138908002D01*
X173451919Y-139136308D01*
X173476955Y-139413949D01*
X173490550Y-139575891D01*
X173643247Y-141128115D01*
X173849575Y-142729969D01*
X174105095Y-144354142D01*
X174405369Y-145973325D01*
X174745961Y-147560204D01*
X174880639Y-148130920D01*
X175003942Y-148616911D01*
X175153100Y-149166138D01*
X175322486Y-149760416D01*
X175506470Y-150381559D01*
X175699424Y-151011382D01*
X175895721Y-151631701D01*
X176089731Y-152224329D01*
X176275826Y-152771081D01*
X176448378Y-153253773D01*
X176547421Y-153516332D01*
X176682477Y-153865122D01*
X176874144Y-153774397D01*
X176973279Y-153729264D01*
X177145484Y-153652773D01*
X177375305Y-153551709D01*
X177647284Y-153432856D01*
X177945965Y-153303000D01*
X178102053Y-153235389D01*
X179329022Y-152676539D01*
X180468537Y-152098863D01*
X181528423Y-151498159D01*
X182516504Y-150870225D01*
X182556405Y-150843291D01*
X182920557Y-150593731D01*
X183264897Y-150351745D01*
X183575101Y-150127719D01*
X183836847Y-149932043D01*
X184035812Y-149775103D01*
X184078524Y-149739344D01*
X184156438Y-149673662D01*
X184292650Y-149559622D01*
X184471314Y-149410459D01*
X184676580Y-149239413D01*
X184799915Y-149136779D01*
X185067985Y-148905265D01*
X185385107Y-148617384D01*
X185735764Y-148288341D01*
X186104438Y-147933342D01*
X186475612Y-147567592D01*
X186833767Y-147206297D01*
X187163387Y-146864663D01*
X187448954Y-146557895D01*
X187572503Y-146419914D01*
X187792952Y-146169314D01*
X187961622Y-145976935D01*
X188090458Y-145828673D01*
X188191411Y-145710426D01*
X188276428Y-145608092D01*
X188357458Y-145507569D01*
X188446448Y-145394752D01*
X188511698Y-145311375D01*
X188632598Y-145158065D01*
X188731416Y-145035233D01*
X188792937Y-144961688D01*
X188804139Y-144949895D01*
X188843155Y-144903267D01*
X188925130Y-144797476D01*
X189036126Y-144651169D01*
X189162205Y-144482994D01*
X189289426Y-144311599D01*
X189403852Y-144155630D01*
X189491544Y-144033735D01*
X189524823Y-143985758D01*
X189614139Y-143858103D01*
X189674685Y-143775532D01*
X189736962Y-143688798D01*
X189833995Y-143548854D01*
X189955028Y-143371716D01*
X190089306Y-143173404D01*
X190226073Y-142969933D01*
X190354574Y-142777323D01*
X190464053Y-142611591D01*
X190543755Y-142488754D01*
X190582923Y-142424831D01*
X190585165Y-142419601D01*
X190609782Y-142372122D01*
X190672849Y-142271474D01*
X190724756Y-142193014D01*
X190969528Y-141810501D01*
X191239856Y-141354477D01*
X191527176Y-140841585D01*
X191822926Y-140288469D01*
X192118542Y-139711772D01*
X192405460Y-139128137D01*
X192675118Y-138554208D01*
X192918951Y-138006627D01*
X193093427Y-137589418D01*
X193350560Y-136952469D01*
X192788923Y-135541031D01*
X192264081Y-134162871D01*
X191806917Y-132832452D01*
X191413238Y-131533279D01*
X191078848Y-130248857D01*
X190799554Y-128962691D01*
X190571162Y-127658287D01*
X190389475Y-126319150D01*
X190346436Y-125936043D01*
X190285272Y-125343035D01*
X190238760Y-124830290D01*
X190207387Y-124393728D01*
X190665636Y-124393728D01*
X190708482Y-125710186D01*
X190821105Y-126986099D01*
X191006724Y-128241858D01*
X191268559Y-129497854D01*
X191609827Y-130774477D01*
X191741065Y-131205805D01*
X192024787Y-132059238D01*
X192350235Y-132937752D01*
X192723206Y-133856011D01*
X193149493Y-134828678D01*
X193320213Y-135201660D01*
X193451463Y-135482957D01*
X193549455Y-135685555D01*
X193619892Y-135818925D01*
X193668477Y-135892539D01*
X193700912Y-135915867D01*
X193722901Y-135898381D01*
X193729996Y-135882223D01*
X193757873Y-135797433D01*
X193806703Y-135639192D01*
X193870690Y-135426659D01*
X193944036Y-135178993D01*
X193983176Y-135045341D01*
X194125721Y-134551768D01*
X194244719Y-134126888D01*
X194345972Y-133747575D01*
X194435277Y-133390701D01*
X194518433Y-133033141D01*
X194601240Y-132651768D01*
X194684145Y-132249895D01*
X194907206Y-131033241D01*
X195077924Y-129847605D01*
X195196016Y-128700102D01*
X195261199Y-127597848D01*
X195273191Y-126547957D01*
X195231708Y-125557545D01*
X195136468Y-124633728D01*
X195015294Y-123917236D01*
X194925112Y-123535168D01*
X194803825Y-123109895D01*
X194661798Y-122672510D01*
X194509396Y-122254105D01*
X194356983Y-121885770D01*
X194290875Y-121744066D01*
X194063045Y-121350778D01*
X193798789Y-121020027D01*
X193506948Y-120756772D01*
X193196359Y-120565971D01*
X192875862Y-120452582D01*
X192554295Y-120421566D01*
X192240498Y-120477880D01*
X192119422Y-120525836D01*
X191829395Y-120690604D01*
X191579577Y-120901525D01*
X191365414Y-121166795D01*
X191182353Y-121494608D01*
X191025839Y-121893160D01*
X190891319Y-122370644D01*
X190774239Y-122935256D01*
X190771245Y-122951964D01*
X190724527Y-123237313D01*
X190692927Y-123497577D01*
X190674159Y-123763947D01*
X190665938Y-124067616D01*
X190665636Y-124393728D01*
X190207387Y-124393728D01*
X190206605Y-124382842D01*
X190188512Y-123985727D01*
X190184187Y-123623979D01*
X190193335Y-123282632D01*
X190215663Y-122946720D01*
X190250874Y-122601278D01*
X190276707Y-122393539D01*
X190335773Y-121991365D01*
X190400277Y-121660671D01*
X190476624Y-121376547D01*
X190571218Y-121114085D01*
X190654696Y-120923520D01*
X190875949Y-120539715D01*
X191146864Y-120235011D01*
X191473809Y-120002384D01*
X191505364Y-119985189D01*
X191695936Y-119892842D01*
X191856250Y-119843837D01*
X192034562Y-119825593D01*
X192123298Y-119824085D01*
X192276048Y-119828932D01*
G37*
D10*
X344250000Y-93690000D02*
X346028000Y-93690000D01*
X344250000Y-95468000D02*
X344250000Y-93690000D01*
X344250000Y-106390000D02*
X344250000Y-104612000D01*
X346028000Y-106390000D02*
X344250000Y-106390000D01*
X355172000Y-93690000D02*
X356950000Y-93690000D01*
X356950000Y-93690000D02*
X356950000Y-95468000D01*
X356950000Y-104612000D02*
X356950000Y-106390000D01*
X356950000Y-106390000D02*
X355172000Y-106390000D01*
X295990000Y-112740000D02*
X297768000Y-112740000D01*
X295990000Y-114518000D02*
X295990000Y-112740000D01*
X295990000Y-125440000D02*
X295990000Y-123662000D01*
X297768000Y-125440000D02*
X295990000Y-125440000D01*
X306912000Y-112740000D02*
X308690000Y-112740000D01*
X308690000Y-112740000D02*
X308690000Y-114518000D01*
X308690000Y-123662000D02*
X308690000Y-125440000D01*
X308690000Y-125440000D02*
X306912000Y-125440000D01*
X147955000Y-93690000D02*
X149733000Y-93690000D01*
X147955000Y-95468000D02*
X147955000Y-93690000D01*
X147955000Y-106390000D02*
X147955000Y-104612000D01*
X149733000Y-106390000D02*
X147955000Y-106390000D01*
X158877000Y-93690000D02*
X160655000Y-93690000D01*
X160655000Y-93690000D02*
X160655000Y-95468000D01*
X160655000Y-104612000D02*
X160655000Y-106390000D01*
X160655000Y-106390000D02*
X158877000Y-106390000D01*
X123825000Y-112740000D02*
X125603000Y-112740000D01*
X123825000Y-114518000D02*
X123825000Y-112740000D01*
X123825000Y-125440000D02*
X123825000Y-123662000D01*
X125603000Y-125440000D02*
X123825000Y-125440000D01*
X134747000Y-112740000D02*
X136525000Y-112740000D01*
X136525000Y-112740000D02*
X136525000Y-114518000D01*
X136525000Y-123662000D02*
X136525000Y-125440000D01*
X136525000Y-125440000D02*
X134747000Y-125440000D01*
X75565000Y-112740000D02*
X77343000Y-112740000D01*
X75565000Y-114518000D02*
X75565000Y-112740000D01*
X75565000Y-125440000D02*
X75565000Y-123662000D01*
X77343000Y-125440000D02*
X75565000Y-125440000D01*
X86487000Y-112740000D02*
X88265000Y-112740000D01*
X88265000Y-112740000D02*
X88265000Y-114518000D01*
X88265000Y-123662000D02*
X88265000Y-125440000D01*
X88265000Y-125440000D02*
X86487000Y-125440000D01*
X75565000Y-93690000D02*
X77343000Y-93690000D01*
X75565000Y-95468000D02*
X75565000Y-93690000D01*
X75565000Y-106390000D02*
X75565000Y-104612000D01*
X77343000Y-106390000D02*
X75565000Y-106390000D01*
X86487000Y-93690000D02*
X88265000Y-93690000D01*
X88265000Y-93690000D02*
X88265000Y-95468000D01*
X88265000Y-104612000D02*
X88265000Y-106390000D01*
X88265000Y-106390000D02*
X86487000Y-106390000D01*
X147955000Y-157190000D02*
X149733000Y-157190000D01*
X147955000Y-158968000D02*
X147955000Y-157190000D01*
X147955000Y-169890000D02*
X147955000Y-168112000D01*
X149733000Y-169890000D02*
X147955000Y-169890000D01*
X158877000Y-157190000D02*
X160655000Y-157190000D01*
X160655000Y-157190000D02*
X160655000Y-158968000D01*
X160655000Y-168112000D02*
X160655000Y-169890000D01*
X160655000Y-169890000D02*
X158877000Y-169890000D01*
X223600000Y-93690000D02*
X225378000Y-93690000D01*
X223600000Y-95468000D02*
X223600000Y-93690000D01*
X223600000Y-106390000D02*
X223600000Y-104612000D01*
X225378000Y-106390000D02*
X223600000Y-106390000D01*
X234522000Y-93690000D02*
X236300000Y-93690000D01*
X236300000Y-93690000D02*
X236300000Y-95468000D01*
X236300000Y-104612000D02*
X236300000Y-106390000D01*
X236300000Y-106390000D02*
X234522000Y-106390000D01*
X99695000Y-157190000D02*
X101473000Y-157190000D01*
X99695000Y-158968000D02*
X99695000Y-157190000D01*
X99695000Y-169890000D02*
X99695000Y-168112000D01*
X101473000Y-169890000D02*
X99695000Y-169890000D01*
X110617000Y-157190000D02*
X112395000Y-157190000D01*
X112395000Y-157190000D02*
X112395000Y-158968000D01*
X112395000Y-168112000D02*
X112395000Y-169890000D01*
X112395000Y-169890000D02*
X110617000Y-169890000D01*
X271860000Y-93690000D02*
X273638000Y-93690000D01*
X271860000Y-95468000D02*
X271860000Y-93690000D01*
X271860000Y-106390000D02*
X271860000Y-104612000D01*
X273638000Y-106390000D02*
X271860000Y-106390000D01*
X282782000Y-93690000D02*
X284560000Y-93690000D01*
X284560000Y-93690000D02*
X284560000Y-95468000D01*
X284560000Y-104612000D02*
X284560000Y-106390000D01*
X284560000Y-106390000D02*
X282782000Y-106390000D01*
X271860000Y-157190000D02*
X273638000Y-157190000D01*
X271860000Y-158968000D02*
X271860000Y-157190000D01*
X271860000Y-169890000D02*
X271860000Y-168112000D01*
X273638000Y-169890000D02*
X271860000Y-169890000D01*
X282782000Y-157190000D02*
X284560000Y-157190000D01*
X284560000Y-157190000D02*
X284560000Y-158968000D01*
X284560000Y-168112000D02*
X284560000Y-169890000D01*
X284560000Y-169890000D02*
X282782000Y-169890000D01*
X147955000Y-112740000D02*
X149733000Y-112740000D01*
X147955000Y-114518000D02*
X147955000Y-112740000D01*
X147955000Y-125440000D02*
X147955000Y-123662000D01*
X149733000Y-125440000D02*
X147955000Y-125440000D01*
X158877000Y-112740000D02*
X160655000Y-112740000D01*
X160655000Y-112740000D02*
X160655000Y-114518000D01*
X160655000Y-123662000D02*
X160655000Y-125440000D01*
X160655000Y-125440000D02*
X158877000Y-125440000D01*
D12*
X250825000Y-96520000D03*
D13*
X256600000Y-95250000D03*
D12*
X54530000Y-115570000D03*
D13*
X60305000Y-114300000D03*
D12*
X226695000Y-160020000D03*
D13*
X232470000Y-158750000D03*
D12*
X347345000Y-115570000D03*
D13*
X353120000Y-114300000D03*
D12*
X299085000Y-96520000D03*
D13*
X304860000Y-95250000D03*
D12*
X250825000Y-160020000D03*
D13*
X256600000Y-158750000D03*
D12*
X323215000Y-96520000D03*
D13*
X328990000Y-95250000D03*
D12*
X126920000Y-96520000D03*
D13*
X132695000Y-95250000D03*
D12*
X250825000Y-115570000D03*
D13*
X256600000Y-114300000D03*
D12*
X102790000Y-115570000D03*
D13*
X108565000Y-114300000D03*
D12*
X126920000Y-160020000D03*
D13*
X132695000Y-158750000D03*
D12*
X102790000Y-96520000D03*
D13*
X108565000Y-95250000D03*
D12*
X274955000Y-115570000D03*
D13*
X280730000Y-114300000D03*
D12*
X54530000Y-96520000D03*
D13*
X60305000Y-95250000D03*
D12*
X226695000Y-115570000D03*
D13*
X232470000Y-114300000D03*
D12*
X323215000Y-115570000D03*
D13*
X328990000Y-114300000D03*
D12*
X347345000Y-96520000D03*
D13*
X353120000Y-95250000D03*
D12*
X299085000Y-115570000D03*
D13*
X304860000Y-114300000D03*
D12*
X151050000Y-96520000D03*
D13*
X156825000Y-95250000D03*
D12*
X126920000Y-115570000D03*
D13*
X132695000Y-114300000D03*
D12*
X78660000Y-115570000D03*
D13*
X84435000Y-114300000D03*
D12*
X78660000Y-96520000D03*
D13*
X84435000Y-95250000D03*
D12*
X151050000Y-160020000D03*
D13*
X156825000Y-158750000D03*
D12*
X226695000Y-96520000D03*
D13*
X232470000Y-95250000D03*
D12*
X102790000Y-160020000D03*
D13*
X108565000Y-158750000D03*
D12*
X274955000Y-96520000D03*
D13*
X280730000Y-95250000D03*
D12*
X274955000Y-160020000D03*
D13*
X280730000Y-158750000D03*
D12*
X151050000Y-115570000D03*
D13*
X156825000Y-114300000D03*
M02*
