M48
; DRILL file {KiCad 7.0.11} date Wed Jun 12 14:29:23 2024
; FORMAT={-:-/ absolute / metric / decimal}
; #@! TF.CreationDate,2024-06-12T14:29:23-04:00
; #@! TF.GenerationSoftware,Kicad,Pcbnew,7.0.11
; #@! TF.FileFunction,NonPlated,1,2,NPTH
FMAT,2
METRIC
; #@! TA.AperFunction,NonPlated,NPTH,ComponentDrill
T1C1.702
; #@! TA.AperFunction,NonPlated,NPTH,ComponentDrill
T2C3.988
%
G90
G05
T1
X52.705Y-100.04
X52.705Y-119.09
X62.865Y-100.04
X62.865Y-119.09
X76.835Y-100.04
X76.835Y-119.09
X86.995Y-100.04
X86.995Y-119.09
X100.965Y-100.04
X100.965Y-119.09
X100.965Y-163.54
X111.125Y-100.04
X111.125Y-119.09
X111.125Y-163.54
X125.095Y-100.04
X125.095Y-119.09
X125.095Y-163.54
X135.255Y-100.04
X135.255Y-119.09
X135.255Y-163.54
X149.225Y-100.04
X149.225Y-119.09
X149.225Y-163.54
X159.385Y-100.04
X159.385Y-119.09
X159.385Y-163.54
X224.87Y-100.04
X224.87Y-119.09
X224.87Y-163.54
X235.03Y-100.04
X235.03Y-119.09
X235.03Y-163.54
X249.0Y-100.04
X249.0Y-119.09
X249.0Y-163.54
X259.16Y-100.04
X259.16Y-119.09
X259.16Y-163.54
X273.13Y-100.04
X273.13Y-119.09
X273.13Y-163.54
X283.29Y-100.04
X283.29Y-119.09
X283.29Y-163.54
X297.26Y-100.04
X297.26Y-119.09
X307.42Y-100.04
X307.42Y-119.09
X321.39Y-100.04
X321.39Y-119.09
X331.55Y-100.04
X331.55Y-119.09
X345.52Y-100.04
X345.52Y-119.09
X355.68Y-100.04
X355.68Y-119.09
T2
X57.785Y-100.04
X57.785Y-119.09
X81.915Y-100.04
X81.915Y-119.09
X106.045Y-100.04
X106.045Y-119.09
X106.045Y-163.54
X130.175Y-100.04
X130.175Y-119.09
X130.175Y-163.54
X154.305Y-100.04
X154.305Y-119.09
X154.305Y-163.54
X229.95Y-100.04
X229.95Y-119.09
X229.95Y-163.54
X254.08Y-100.04
X254.08Y-119.09
X254.08Y-163.54
X278.21Y-100.04
X278.21Y-119.09
X278.21Y-163.54
X302.34Y-100.04
X302.34Y-119.09
X326.47Y-100.04
X326.47Y-119.09
X350.6Y-100.04
X350.6Y-119.09
M30
