M48
; DRILL file {KiCad 7.0.11} date Wed Jun 12 14:29:23 2024
; FORMAT={-:-/ absolute / metric / decimal}
; #@! TF.CreationDate,2024-06-12T14:29:23-04:00
; #@! TF.GenerationSoftware,Kicad,Pcbnew,7.0.11
; #@! TF.FileFunction,Plated,1,2,PTH
FMAT,2
METRIC
; #@! TA.AperFunction,Plated,PTH,ComponentDrill
T1C1.100
; #@! TA.AperFunction,Plated,PTH,ComponentDrill
T2C1.500
%
G90
G05
T1
X184.429Y-90.043
X184.429Y-92.583
X184.429Y-95.123
X184.429Y-97.663
X184.429Y-100.203
X184.429Y-102.743
X184.429Y-105.283
X184.429Y-107.823
X184.429Y-110.363
X184.429Y-112.903
X184.429Y-115.443
X184.429Y-117.983
X199.669Y-90.043
X199.669Y-92.583
X199.669Y-95.123
X199.669Y-97.663
X199.669Y-100.203
X199.669Y-102.743
X199.669Y-105.283
X199.669Y-107.823
X199.669Y-110.363
X199.669Y-112.903
X199.669Y-115.443
X199.669Y-117.983
T2
X55.134Y-95.571G85X53.926Y-97.469
G05
X55.134Y-114.621G85X53.926Y-116.519
G05
X60.325Y-94.961G85X60.285Y-95.539
G05
X60.325Y-114.011G85X60.285Y-114.589
G05
X79.264Y-95.571G85X78.056Y-97.469
G05
X79.264Y-114.621G85X78.056Y-116.519
G05
X84.455Y-94.961G85X84.415Y-95.539
G05
X84.455Y-114.011G85X84.415Y-114.589
G05
X103.394Y-95.571G85X102.186Y-97.469
G05
X103.394Y-114.621G85X102.186Y-116.519
G05
X103.394Y-159.071G85X102.186Y-160.969
G05
X108.585Y-94.961G85X108.545Y-95.539
G05
X108.585Y-114.011G85X108.545Y-114.589
G05
X108.585Y-158.461G85X108.545Y-159.039
G05
X127.524Y-95.571G85X126.316Y-97.469
G05
X127.524Y-114.621G85X126.316Y-116.519
G05
X127.524Y-159.071G85X126.316Y-160.969
G05
X132.715Y-94.961G85X132.675Y-95.539
G05
X132.715Y-114.011G85X132.675Y-114.589
G05
X132.715Y-158.461G85X132.675Y-159.039
G05
X151.654Y-95.571G85X150.446Y-97.469
G05
X151.654Y-114.621G85X150.446Y-116.519
G05
X151.654Y-159.071G85X150.446Y-160.969
G05
X156.845Y-94.961G85X156.805Y-95.539
G05
X156.845Y-114.011G85X156.805Y-114.589
G05
X156.845Y-158.461G85X156.805Y-159.039
G05
X227.299Y-95.571G85X226.091Y-97.469
G05
X227.299Y-114.621G85X226.091Y-116.519
G05
X227.299Y-159.071G85X226.091Y-160.969
G05
X232.49Y-94.961G85X232.45Y-95.539
G05
X232.49Y-114.011G85X232.45Y-114.589
G05
X232.49Y-158.461G85X232.45Y-159.039
G05
X251.429Y-95.571G85X250.221Y-97.469
G05
X251.429Y-114.621G85X250.221Y-116.519
G05
X251.429Y-159.071G85X250.221Y-160.969
G05
X256.62Y-94.961G85X256.58Y-95.539
G05
X256.62Y-114.011G85X256.58Y-114.589
G05
X256.62Y-158.461G85X256.58Y-159.039
G05
X275.559Y-95.571G85X274.351Y-97.469
G05
X275.559Y-114.621G85X274.351Y-116.519
G05
X275.559Y-159.071G85X274.351Y-160.969
G05
X280.75Y-94.961G85X280.71Y-95.539
G05
X280.75Y-114.011G85X280.71Y-114.589
G05
X280.75Y-158.461G85X280.71Y-159.039
G05
X299.689Y-95.571G85X298.481Y-97.469
G05
X299.689Y-114.621G85X298.481Y-116.519
G05
X304.88Y-94.961G85X304.84Y-95.539
G05
X304.88Y-114.011G85X304.84Y-114.589
G05
X323.819Y-95.571G85X322.611Y-97.469
G05
X323.819Y-114.621G85X322.611Y-116.519
G05
X329.01Y-94.961G85X328.97Y-95.539
G05
X329.01Y-114.011G85X328.97Y-114.589
G05
X347.949Y-95.571G85X346.741Y-97.469
G05
X347.949Y-114.621G85X346.741Y-116.519
G05
X353.14Y-94.961G85X353.1Y-95.539
G05
X353.14Y-114.011G85X353.1Y-114.589
G05
M30
